<?xml version="1.0" standalone="no"?>
<!DOCTYPE svg PUBLIC "-//W3C//DTD SVG 1.1//EN" "http://www.w3.org/Graphics/SVG/1.1/DTD/svg11.dtd" >
<svg xmlns="http://www.w3.org/2000/svg">
<metadata></metadata>
<defs>
<font id="greyscalebasicregular" horiz-adv-x="985" >
<font-face units-per-em="2048" ascent="1536" descent="-512" />
<missing-glyph horiz-adv-x="552" />
<glyph horiz-adv-x="2048" />
<glyph horiz-adv-x="2048" />
<glyph unicode="&#xd;" horiz-adv-x="1433" />
<glyph unicode=" "  horiz-adv-x="552" />
<glyph unicode="&#x09;" horiz-adv-x="552" />
<glyph unicode="&#xa0;" horiz-adv-x="552" />
<glyph unicode="!" horiz-adv-x="307" d="M94 51q0 23 16.5 37t39.5 14t37 -14t14 -37t-14.5 -37t-36.5 -14q-23 0 -39.5 14.5t-16.5 36.5zM94 485v1012q0 23 16.5 37t39.5 14t37 -14t14 -37v-1012q0 -23 -14.5 -38t-36.5 -15q-23 0 -39.5 15.5t-16.5 37.5z" />
<glyph unicode="&#x22;" horiz-adv-x="329" d="M51 1364v152q0 16 11.5 26t25.5 10q16 0 28.5 -10t12.5 -26v-152q0 -16 -12.5 -26.5t-28.5 -10.5q-14 0 -25.5 10.5t-11.5 26.5zM195 1364v152q0 16 11 26t25 10q16 0 28.5 -10t12.5 -26v-152q0 -16 -12 -26.5t-29 -10.5q-14 0 -25 10.5t-11 26.5z" />
<glyph unicode="#" horiz-adv-x="952" d="M90 578q0 23 12.5 36t34.5 13h78v293h-78q-23 0 -35 15t-12 38t12.5 36t34.5 13h78v86q0 23 13.5 39t35.5 16q23 0 38 -16.5t15 -38.5v-86h318v86q0 23 14.5 39t36.5 16q23 0 38 -16.5t15 -38.5v-86h72q23 0 37 -13.5t14 -35.5q0 -23 -14 -38t-37 -15h-72v-293h72 q23 0 37 -13.5t14 -35.5q0 -57 -51 -58h-72v-86q0 -16 -15 -32.5t-38 -16.5t-37 16.5t-14 32.5v86h-318v-86q0 -16 -15 -32.5t-38 -16.5t-36 16.5t-13 32.5v86h-78q-47 0 -47 58zM317 627h318v293h-318v-293z" />
<glyph unicode="$" horiz-adv-x="911" d="M78 248q0 23 14 39t37 16h293v469q-23 20 -44.5 37.5t-37.5 34.5q-20 16 -37 33l-115 100v4q-33 35 -54 79t-21 93q0 45 18.5 88t50.5 78q35 33 78 51.5t90 18.5h72v106q0 23 13.5 37t33.5 14q23 0 36 -14t13 -37v-106h254q20 0 35.5 -17.5t15.5 -42.5q0 -20 -15 -34.5 t-36 -14.5h-254v-455q16 -18 34.5 -33.5t35.5 -25.5q18 -12 33 -25l151 -135q35 -37 53.5 -81t18.5 -91t-18.5 -91t-49.5 -73q-76 -70 -166 -69h-92v-146q0 -23 -13 -36t-36 -13q-20 0 -33.5 13.5t-13.5 35.5v146h-293q-23 0 -37 14t-14 33zM217 1153q0 -53 41 -94 q6 -4 24.5 -21.5t39.5 -36.5q22 -22 51 -49q6 -4 14 -12q12 -14 35 -29v369h-72q-49 0 -92 -39q-18 -18 -29.5 -39.5t-11.5 -48.5zM518 303h92q25 0 48.5 7.5t41.5 25.5q16 23 27.5 46.5t11.5 51.5q0 23 -11 49.5t-28 48.5q-6 2 -29.5 22.5t-52.5 43.5q-33 27 -69 61 q-4 2 -8 7q-4 4 -9.5 8t-13.5 10v-381z" />
<glyph unicode="%" horiz-adv-x="1216" d="M184 1212v136q0 41 16.5 76.5t44 63.5t64.5 44t78 16q43 0 79 -16t63.5 -44t43 -63.5t15.5 -76.5v-136q0 -41 -15.5 -77.5t-43 -64.5t-64.5 -44t-80 -16q-41 0 -77 16t-63.5 44t-44 64.5t-16.5 77.5zM191.5 33.5q-7.5 21.5 3.5 40.5l743 1446q10 23 31 27.5t39 -5.5 q23 -10 28.5 -30.5t-4.5 -41.5l-741 -1443q-10 -18 -31.5 -25.5t-40.5 0.5q-20 10 -27.5 31.5zM291 1212q0 -41 27.5 -68.5t66.5 -27.5q43 0 69.5 27.5t26.5 68.5v136q0 39 -26.5 68.5t-67.5 29.5t-68.5 -30t-27.5 -68v-136zM637 203v133q0 41 16.5 78t44 64.5t64.5 44 t78 16.5q43 0 79.5 -16.5t64.5 -44t44 -64.5t16 -78v-133q0 -43 -16 -80t-44 -64.5t-64.5 -43t-79.5 -15.5q-41 0 -78 15.5t-64.5 43t-44 64.5t-16.5 80zM743 203q0 -43 28 -72t69 -29t69.5 29t28.5 72v133q0 39 -28.5 67.5t-69.5 28.5t-69 -28.5t-28 -67.5v-133z" />
<glyph unicode="&#x26;" horiz-adv-x="1173" d="M72 438q0 98 43 186.5t121 149.5l147 119l-131 172q-61 80 -62 182q0 63 24 118.5t66 96.5t97 64.5t119 23.5q63 0 118.5 -23.5t97.5 -64.5t66.5 -96t24.5 -119q0 -63 -24.5 -122.5t-73.5 -100.5v-4h-5l-176 -148l361 -462l159 192q16 16 37 20.5t37 -12.5 q18 -12 19.5 -35.5t-11.5 -42.5l-172 -210l172 -230q12 -16 11.5 -36.5t-19.5 -32.5q-39 -33 -74 8l-159 213l-54 -66q-61 -80 -149 -124t-186 -44q-88 0 -166 35t-135.5 93.5t-90 136t-32.5 163.5zM178 438q0 -68 25.5 -126t68.5 -101t100.5 -68.5t123.5 -25.5 q74 0 140 32.5t114 94.5l69 82l-375 481l-143 -115v-4q-59 -43 -91 -107.5t-32 -142.5zM297 1247q0 -68 41 -121l125 -168l172 140q29 31 47 66.5t18 82.5q0 39 -16 75t-44 63.5t-64.5 43t-79.5 15.5q-41 0 -77 -15.5t-63.5 -43t-43 -63.5t-15.5 -75z" />
<glyph unicode="'" horiz-adv-x="239" d="M88 1364v152q0 16 11.5 26t25.5 10q16 0 28.5 -10t12.5 -26v-152q0 -16 -12.5 -26.5t-28.5 -10.5q-14 0 -25.5 10.5t-11.5 26.5z" />
<glyph unicode="(" horiz-adv-x="575" d="M123 344v860q0 76 28.5 142.5t78 115.5t115 78t140.5 29q23 0 38.5 -14.5t15.5 -36.5q0 -23 -15.5 -37.5t-38.5 -14.5q-53 0 -100 -20.5t-82 -56t-55.5 -84t-20.5 -101.5v-860q0 -53 20.5 -101t55.5 -84t82 -56.5t100 -20.5q23 0 38.5 -14.5t15.5 -36.5q0 -23 -15.5 -37 t-38.5 -14q-76 0 -141 28.5t-114.5 77.5t-78 115.5t-28.5 142.5z" />
<glyph unicode=")" horiz-adv-x="579" d="M37 31q0 23 13 37t38 14q53 0 100.5 20.5t82 56.5t55 84t20.5 101v860q0 53 -20.5 101.5t-55 84t-82 56t-100.5 20.5q-25 0 -38 14.5t-13 37.5t13 37t38 14q76 0 142.5 -29t115.5 -78t78 -115.5t29 -142.5v-860q0 -76 -29 -142.5t-78 -115.5t-115.5 -77.5t-142.5 -28.5 q-25 0 -38 14t-13 37z" />
<glyph unicode="*" horiz-adv-x="712" d="M91.5 1390.5q-3.5 18.5 8.5 34.5q8 16 24.5 22.5t35.5 -5.5l145 -86v139q0 23 14.5 37t32.5 14t33.5 -14t15.5 -37v-139l138 86q23 12 41 5.5t24 -22.5q12 -16 9 -34.5t-19 -28.5l-150 -90l150 -84q37 -31 10 -66q-6 -20 -24.5 -24t-40.5 8l-138 88v-147q0 -18 -15 -29.5 t-34 -11.5q-18 0 -32.5 11t-14.5 30v147l-145 -88q-18 -12 -34.5 -8t-25.5 24q-29 35 13 66l147 84l-147 90q-18 10 -21.5 28.5z" />
<glyph unicode="+" horiz-adv-x="927" d="M29 774q0 23 15 37t38 14h319v322q0 23 15.5 37t38.5 14t37 -14.5t14 -36.5v-322h317q25 0 40.5 -14t15.5 -37t-15.5 -37t-40.5 -14h-317v-320q0 -23 -14.5 -38t-36.5 -15q-23 0 -38.5 15.5t-15.5 37.5v320h-319q-23 0 -38 14.5t-15 36.5z" />
<glyph unicode="," horiz-adv-x="309" d="M115 66q0 16 11.5 26t25.5 10q16 0 28.5 -10t12.5 -26v-193q0 -16 -12.5 -26.5t-28.5 -10.5q-14 0 -25.5 10.5t-11.5 26.5v193z" />
<glyph unicode="-" horiz-adv-x="866" d="M100 774q0 23 16.5 37t39.5 14h542q18 0 35 -14t17 -37t-16.5 -37t-35.5 -14h-542q-23 0 -39.5 14.5t-16.5 36.5z" />
<glyph unicode="." horiz-adv-x="337" d="M102 43q0 27 16.5 43t43.5 16t44 -16t17 -43t-17.5 -43t-43.5 -16q-27 0 -43.5 16t-16.5 43z" />
<glyph unicode="/" horiz-adv-x="925" d="M46.5 33.5q-7.5 21.5 2.5 40.5l744 1446q8 23 29.5 27.5t37.5 -5.5q23 -10 29 -30.5t-2 -41.5l-744 -1443q-10 -18 -30.5 -25.5t-40.5 0.5q-18 10 -25.5 31.5z" />
<glyph unicode="0" horiz-adv-x="1351" d="M123 551v444q0 115 44 216.5t118.5 176t175 117.5t215.5 43t215 -43t176 -117.5t119 -176t43 -216.5v-444q0 -115 -43 -215t-119 -175t-176 -118t-215 -43t-215.5 43t-175 118t-118.5 175t-44 215zM229 551q0 -92 35 -174t96.5 -143.5t142.5 -96.5t173 -35q78 0 147.5 27 t128.5 72l-606 1097q-55 -59 -86 -137t-31 -166v-444zM430 1368l598 -1094q47 59 71.5 129t24.5 148v444q0 94 -34.5 176t-96 143.5t-143.5 96.5t-174 35q-70 0 -132.5 -20.5t-113.5 -57.5z" />
<glyph unicode="1" horiz-adv-x="423" d="M4 1497q0 23 16.5 37t38.5 14h150q23 0 37 -14t14 -37v-1446q0 -23 -14.5 -37t-36.5 -14q-23 0 -37 14.5t-14 36.5v1395h-99q-23 0 -39 14.5t-16 36.5z" />
<glyph unicode="2" horiz-adv-x="1075" d="M57 27q-10 29 6 57l793 1049v2h2q37 53 37 114q0 78 -57 140q-57 57 -136 57h-585q-18 0 -34.5 14.5t-16.5 36.5q0 23 16 37t35 14h585q59 0 114.5 -21.5t98.5 -64.5q41 -41 62.5 -96t21.5 -117q0 -47 -15 -93t-46 -87l-725 -967h745q23 0 39.5 -13t16.5 -38 q0 -23 -16.5 -37t-39.5 -14h-852q-35 0 -49 27z" />
<glyph unicode="3" horiz-adv-x="1056" d="M12 51q0 23 15.5 37t38.5 14h520q47 0 89 18.5t72.5 50.5t49 74t18.5 91v153q0 90 -56.5 155t-142.5 75h-417q-25 0 -38.5 15.5t-13.5 37.5v2q0 51 52 51h417q86 14 142.5 78t56.5 152v155q0 49 -18.5 91t-49 73t-72.5 49.5t-89 18.5h-520q-23 0 -38.5 16.5t-15.5 34.5 q0 25 15.5 40t38.5 15h520q68 0 129 -26.5t107 -72.5t73 -107.5t27 -131.5v-155q0 -88 -42 -163t-112 -118q70 -45 112 -119.5t42 -165.5v-153q0 -70 -27 -131.5t-73 -106.5t-107.5 -71.5t-128.5 -26.5h-520q-23 0 -38.5 14.5t-15.5 36.5z" />
<glyph unicode="4" horiz-adv-x="1138" d="M12 651q0 49 23.5 101.5t64.5 95.5v4l652 680q16 16 39 16h90q23 0 37 -14t14 -37v-979h45q25 0 40 -15.5t15 -37.5q0 -20 -15.5 -35.5t-39.5 -15.5h-45v-363q0 -23 -14.5 -37t-36.5 -14q-23 0 -37.5 14.5t-14.5 36.5v363h-579q-49 0 -92 19.5t-75 51t-51.5 74.5 t-19.5 92zM117 651q0 -53 40 -93t93 -40h579v928h-18l-633 -666q-27 -31 -44 -65.5t-17 -63.5z" />
<glyph unicode="5" horiz-adv-x="1101" d="M74 1118v256q0 74 51 123q25 27 56.5 39t66.5 12h291h430q23 0 37 -14t14 -37t-14.5 -37t-36.5 -14h-430h-291q-14 0 -26.5 -6t-20.5 -15q-20 -31 -21 -51v-256q0 -39 14.5 -73.5t38.5 -61.5q61 -57 136 -57h8h287q76 0 142 -29t116.5 -78t80 -115.5t29.5 -142.5v-196 q0 -76 -29.5 -142.5t-80 -116t-117 -78t-141.5 -28.5h-535q-20 0 -36.5 14.5t-16.5 36.5q0 23 16.5 37t36.5 14h535q53 0 101 20.5t84 56.5t56.5 84t20.5 102v196q0 53 -20.5 100.5t-56.5 82t-84 55t-101 20.5h-295h-2l-5 4q-119 4 -200 82q-88 94 -88 213z" />
<glyph unicode="6" horiz-adv-x="1275" d="M143 365v819q0 76 29 142.5t79 115.5t116.5 77.5t142.5 28.5h242q76 0 142.5 -28.5t116.5 -77.5t78.5 -115.5t28.5 -142.5q0 -23 -16.5 -38.5t-38.5 -15.5q-23 0 -37 15.5t-14 38.5q0 53 -20.5 101t-56.5 84t-83 56.5t-100 20.5h-242q-53 0 -101.5 -20.5t-83 -56.5 t-55 -84t-20.5 -101v-266q104 109 260 108h278q76 0 142.5 -28.5t116 -78t78 -116t28.5 -141.5v-297q0 -76 -28.5 -142.5t-78 -116t-116 -78t-142.5 -28.5h-278q-76 0 -142.5 28.5t-116.5 78t-79 116t-29 142.5zM250 365q0 -53 20.5 -101.5t55 -84.5t83 -56.5t101.5 -20.5 h278q53 0 100.5 20.5t82.5 56.5t55.5 84t20.5 102v297q0 53 -20.5 101t-55.5 84t-82 56.5t-101 20.5h-278q-53 0 -101.5 -20.5t-83 -56.5t-55 -84t-20.5 -101v-297z" />
<glyph unicode="7" horiz-adv-x="991" d="M12 1497q0 23 15.5 37t35.5 14h625q109 0 176 -73q74 -74 74 -177q0 -23 -4 -44t-10 -44v-4l-500 -1175q-6 -23 -27.5 -30t-38.5 1q-23 10 -29.5 28.5t1.5 41.5l493 1175q8 23 8 51q0 59 -38 105q-45 39 -105 39l-625 4q-20 0 -35.5 14.5t-15.5 36.5z" />
<glyph unicode="8" horiz-adv-x="1245" d="M119 365v200q0 104 55 191.5t145 132.5q-53 43 -83.5 104.5t-30.5 132.5v119q0 61 23.5 116.5t65.5 97.5t97 65.5t119 23.5h227q61 0 116.5 -23.5t97.5 -65.5t65.5 -97t23.5 -117v-119q0 -72 -30.5 -133t-83.5 -104q90 -45 145 -132t55 -192v-200q0 -76 -28.5 -142.5 t-77.5 -116t-116.5 -78t-143.5 -28.5h-279q-76 0 -141.5 28.5t-114.5 78t-77.5 116t-28.5 142.5zM223 365q0 -53 20.5 -101.5t55.5 -84.5t82 -56.5t100 -20.5h279q53 0 101 20.5t84 56.5t56.5 84t20.5 102v200q0 51 -20.5 98.5t-56.5 83t-84 56t-101 20.5h-279 q-53 0 -100 -20.5t-82 -56t-55.5 -83t-20.5 -98.5v-200zM309 1126q0 -41 15.5 -76.5t43 -63.5t64.5 -44t78 -16h225h2q41 0 77 16t63.5 44t44 63.5t16.5 76.5v119q0 41 -16.5 77t-44 63.5t-63.5 44t-77 16.5h-227q-41 0 -78 -16.5t-64.5 -44t-43 -63.5t-15.5 -77v-119z" />
<glyph unicode="9" horiz-adv-x="1273" d="M123 977v207q0 76 28.5 142.5t78 115.5t116 77.5t141.5 28.5h279q76 0 142.5 -28.5t115.5 -77.5t77.5 -115.5t28.5 -142.5v-819q0 -76 -28.5 -142.5t-77.5 -116t-115.5 -78t-142.5 -28.5h-244q-76 0 -142.5 28.5t-115.5 78t-77.5 116t-28.5 142.5q0 23 15 37t40 14 q23 0 37 -14.5t14 -36.5q0 -53 20.5 -101.5t55.5 -84.5t82 -56.5t100 -20.5h244q53 0 100 20.5t82 56.5t55.5 84t20.5 102v358q-47 -53 -114.5 -81t-143.5 -28h-279q-76 0 -142 29t-115.5 78t-78 114.5t-28.5 141.5zM229 977q0 -53 20.5 -100.5t55.5 -82t82 -55t100 -20.5 h279q53 0 100 20.5t82 55t55.5 82t20.5 100.5v207q0 53 -20.5 101t-55.5 84t-82 56.5t-100 20.5h-279q-53 0 -100 -20.5t-82 -56.5t-55.5 -84t-20.5 -101v-207z" />
<glyph unicode=":" horiz-adv-x="382" d="M139 414q0 23 14 37t37 14t38.5 -14.5t15.5 -36.5q0 -23 -15.5 -38.5t-38.5 -15.5t-37 15.5t-14 38.5zM139 774q0 23 14 37t37 14t38.5 -14t15.5 -37t-15.5 -37t-38.5 -14t-37 14.5t-14 36.5z" />
<glyph unicode=";" horiz-adv-x="380" d="M139 774q0 23 14 37t37 14t39.5 -14t16.5 -37t-16.5 -37t-39.5 -14t-37 14.5t-14 36.5zM154 276v213q0 16 11 26.5t25 10.5q16 0 28.5 -10t12.5 -27v-213q0 -16 -12 -26t-29 -10q-14 0 -25 10t-11 26z" />
<glyph unicode="&#x3c;" horiz-adv-x="679" d="M12 774q0 23 19 41l436 361q16 12 38 9.5t34 -18.5q16 -16 12 -37.5t-21 -33.5l-380 -322l380 -321q16 -16 20.5 -37t-11.5 -37q-12 -16 -34 -19.5t-38 13.5l-436 360q-18 23 -19 41z" />
<glyph unicode="=" horiz-adv-x="980" d="M152 774q0 23 16 37t39 14h571q18 0 34.5 -14t16.5 -37t-16 -37t-35 -14h-571q-23 0 -39 14.5t-16 36.5zM152 954q0 23 16 37.5t39 14.5h571q18 0 34.5 -14.5t16.5 -37.5t-16 -37t-35 -14h-571q-23 0 -39 14.5t-16 36.5z" />
<glyph unicode="&#x3e;" horiz-adv-x="677" d="M128 415.5q3 20.5 19 37.5l381 321l-381 322q-16 12 -19 33.5t11 37.5q16 16 37 18.5t37 -9.5l436 -361q6 -8 11.5 -19.5t5.5 -21.5t-5.5 -20.5t-11.5 -20.5l-436 -360q-16 -16 -36.5 -13.5t-37.5 19.5q-14 16 -11 36.5z" />
<glyph unicode="?" horiz-adv-x="847" d="M12 1497q0 23 14.5 37t36.5 14h408q76 0 142.5 -28.5t115.5 -77.5t78 -115.5t29 -142.5t-29 -142.5t-78 -115.5t-115.5 -78t-142.5 -29q-80 0 -137 -53q-27 -31 -41 -65.5t-14 -75.5v-125q0 -25 -16.5 -40.5t-35.5 -15.5q-25 0 -40 15.5t-15 40.5v125q0 59 22.5 115.5 t63.5 97.5q88 88 213 88q53 0 100 20.5t83 55t56.5 81.5t20.5 101q0 53 -20.5 101t-56.5 84t-83 56.5t-100 20.5h-408q-23 0 -37 14.5t-14 36.5zM172 51q0 23 15 37t40 14q18 0 35 -14t17 -37t-16.5 -37t-35.5 -14q-25 0 -40 14.5t-15 36.5z" />
<glyph unicode="@" horiz-adv-x="1685" d="M135 418v706q0 113 43 213.5t118 176t176 118.5t216 43h209h121q113 0 213 -42t180 -120q78 -80 119 -179t41 -210v-157v-637q0 -20 -14.5 -35.5t-36.5 -15.5q-23 0 -39.5 15t-16.5 36v637v157q0 88 -32.5 169t-96.5 147q-66 66 -145.5 97.5t-171.5 31.5h-121h-209 q-94 0 -176 -35t-143.5 -95.5t-96 -141t-34.5 -173.5v-706q0 -23 -14.5 -38t-37.5 -15q-25 0 -38 15t-13 38zM135 418q0 -23 13 -38t38 -15q23 0 37.5 15t14.5 38q0 -92 34.5 -174t96 -142.5t143.5 -96.5t176 -36l318 2q53 0 91 37t38 90v172q-23 -6 -37 -6h-137h-250 q-94 0 -166 68q-33 35 -51.5 78t-18.5 90v182q0 47 18.5 89t51.5 72.5t75 49t91 18.5h116h86h97q35 0 65.5 -8t59.5 -29v7v163q0 45 -37 86q-35 37 -92 37h-93h-43h-215v-80q0 -23 -15 -38t-38 -15q-20 0 -35.5 15.5t-15.5 37.5v134q0 23 15.5 38t35.5 15h268h43h93 q98 0 165 -68q35 -33 51.5 -74.5t16.5 -87.5v-163v-195v-4v-6v-359v-219q0 -49 -17.5 -91t-49 -73.5t-74.5 -50t-92 -18.5l-318 -2q-115 0 -216 44t-176 118.5t-118 176t-43 216.5zM582 500q0 -51 36 -92q43 -37 93 -37h250h137q16 0 26.5 10t10.5 27v14v264q-2 51 -38 85 t-87 34h-97h-86h-116q-53 0 -91 -35t-38 -88v-182z" />
<glyph unicode="A" horiz-adv-x="1413" d="M82 70l496 1443q14 37 49 37h159q39 0 50 -37l501 -1443q1 -7 1 -13q0 -13 -5 -27q-8 -20 -30 -28q-9 -4 -18 -4l-22 6q-20 10 -26 33l-166 473h-727l-162 -473q-8 -23 -28 -33q-11 -6 -21 -6q-9 0 -18 4q-23 8 -32 28q-5 10 -5 21q0 9 4 19zM379 616h657l-286 830h-84z " />
<glyph unicode="B" horiz-adv-x="1331" d="M156 51v1446q0 23 15 38t40 15h506q76 0 142.5 -28.5t115.5 -77.5t77.5 -114.5t28.5 -141.5v-25q0 -82 -34 -151.5t-89 -120.5q57 -16 106.5 -49t85.5 -79t55.5 -103.5t19.5 -120.5v-174q0 -76 -29 -142.5t-78 -116t-115.5 -78t-142.5 -28.5h-649q-25 0 -40 14.5 t-15 36.5zM262 106h598q53 0 101.5 20.5t84 55.5t56 82t20.5 101v174q0 53 -20.5 101t-56 84t-84 56.5t-101.5 20.5h-143h-455v-695zM262 903h455q53 0 100 20.5t82 55.5t55.5 83t20.5 101v25q0 53 -20.5 100t-55.5 82t-82 55.5t-100 20.5h-455v-543z" />
<glyph unicode="C" horiz-adv-x="1024" d="M115 553v444q0 115 43 215.5t117.5 176t176 118.5t216.5 43h278q23 0 38 -15t15 -38t-15 -37t-38 -14h-278q-92 0 -174 -35t-143.5 -96.5t-96.5 -143t-35 -174.5v-444q0 -186 133 -315q61 -66 142 -99t174 -33h280q23 0 37 -16t14 -39t-14 -37t-37 -14h-280 q-111 0 -212.5 41t-179.5 119q-78 80 -119.5 181t-41.5 212z" />
<glyph unicode="D" horiz-adv-x="1318" d="M156 51v1446q0 23 14 38t37 15h438q115 0 216.5 -43t176 -118.5t118.5 -176t44 -215.5v-444q0 -115 -44 -215t-118.5 -175t-176 -119t-216.5 -44h-438q-23 0 -37 14.5t-14 36.5zM258 106h387q92 0 174 35t143.5 96.5t96.5 142.5t35 173v444q0 90 -34 172t-99 144 q-61 66 -142.5 99.5t-173.5 33.5h-387v-1340z" />
<glyph unicode="E" horiz-adv-x="1134" d="M156 51v1446q0 23 14 38t37 15h866q23 0 38 -15t15 -38t-15 -37t-38 -14h-815v-545h719q23 0 38 -15.5t15 -37.5q0 -23 -15.5 -38t-37.5 -15h-719v-689h815q23 0 38 -16t15 -39t-15 -37t-38 -14h-866q-23 0 -37 14.5t-14 36.5z" />
<glyph unicode="F" horiz-adv-x="1126" d="M156 51v1446q0 23 15 38t36 15h868q23 0 37 -15t14 -38t-14 -37t-37 -14h-813v-545h717q23 0 37 -15.5t14 -37.5q0 -23 -14.5 -38t-36.5 -15h-717v-744q0 -23 -16.5 -37t-38.5 -14q-20 0 -35.5 14.5t-15.5 36.5z" />
<glyph unicode="G" horiz-adv-x="1333" d="M123 553v444q0 115 44 215.5t118.5 176t175 118.5t215.5 43q160 0 290 -80.5t201 -220.5q10 -18 5 -39.5t-25 -31.5t-41 -3t-31 27q-59 115 -164.5 179.5t-234.5 64.5q-92 0 -173 -35t-142.5 -96.5t-96.5 -143t-35 -174.5v-444q0 -92 35 -173t96.5 -142.5t142.5 -96.5 t173 -35t174 35t143.5 96.5t96 142.5t34.5 173v170h-190q-23 0 -37 14.5t-14 36.5q0 23 14 39t37 16h242q23 0 41 -18q14 -14 14 -37v-221q0 -115 -44 -215t-119 -175t-176 -119t-216 -44t-215.5 44t-175 119t-118.5 175t-44 215z" />
<glyph unicode="H" horiz-adv-x="1421" d="M156 51v1446q0 23 15 38t38 15t38 -15t15 -38v-588h901v588q0 23 14 38t37 15t37.5 -15t14.5 -38v-1446q0 -23 -14.5 -37t-37.5 -14t-37 14.5t-14 36.5v752h-901v-752q0 -23 -15.5 -37t-37.5 -14q-23 0 -38 14.5t-15 36.5z" />
<glyph unicode="I" horiz-adv-x="438" d="M156 51v1446q0 23 15 38t38 15t38 -15t15 -38v-1446q0 -23 -15.5 -37t-37.5 -14q-23 0 -38 14.5t-15 36.5z" />
<glyph unicode="J" horiz-adv-x="731" d="M0 51q0 23 15.5 39t37.5 16q92 0 174 35t143.5 96.5t96.5 142.5t35 173v944q0 23 14 38t37 15t37 -15t14 -38v-944q0 -115 -43 -215t-117.5 -175t-175 -119t-215.5 -44q-23 0 -38 14.5t-15 36.5z" />
<glyph unicode="K" horiz-adv-x="1363" d="M156 51v1446q0 23 14 38t37 15q25 0 40 -15t15 -38v-596h307l578 633q15 16 37 17h3q20 0 36 -15q17 -15 17 -38q0 -20 -15 -36l-568 -618l551 -760q10 -18 7 -39.5t-21 -36.5q-12 -9 -27 -9q-5 0 -11 1q-22 4 -38 20l-553 775h-303v-744q0 -23 -15.5 -37t-39.5 -14 q-23 0 -37 14.5t-14 36.5z" />
<glyph unicode="L" horiz-adv-x="1114" d="M156 51v1446q0 23 15 38t40 15q23 0 37 -15t14 -38v-1391h797q23 0 39 -16t16 -39t-16.5 -37t-38.5 -14h-823h-15h-10q-25 0 -40 14.5t-15 36.5z" />
<glyph unicode="M" horiz-adv-x="1646" d="M156 51v1446q0 23 14 38t37 15h123q27 0 43 -22l477 -660l420 658q17 24 45 24h2h121q23 0 38 -15t15 -38v-1446q0 -23 -15.5 -37t-37.5 -14q-23 0 -38.5 14.5t-15.5 36.5v1395h-38l-451 -698q-18 -25 -43 -25q-29 0 -43 20l-508 703h-39v-1395q0 -23 -16.5 -37 t-38.5 -14q-23 0 -37 14.5t-14 36.5z" />
<glyph unicode="N" horiz-adv-x="1406" d="M156 51v1446q0 23 15 38t38 15h129q33 0 45 -28l717 -1416h45v1391q0 23 15 38t38 15t38 -15t15 -38v-1446q0 -23 -15 -37t-38 -14h-129q-33 0 -47 29l-719 1417h-41v-1395q0 -23 -15.5 -37t-37.5 -14q-23 0 -38 14.5t-15 36.5z" />
<glyph unicode="O" horiz-adv-x="1351" d="M123 553v444q0 115 43 215.5t117.5 176t176 118.5t216.5 43q113 0 213 -41t180 -118q78 -80 119 -181.5t41 -212.5v-444q0 -115 -43 -215t-119 -175t-176 -119t-215 -44t-216.5 44t-176 119t-117.5 175t-43 215zM229 553q0 -92 35 -173t96.5 -142.5t142.5 -96.5t173 -35 t174 35t143.5 96.5t96 142.5t34.5 173v444q0 90 -33.5 172t-99.5 144q-61 66 -142 99.5t-173 33.5t-173 -35t-142.5 -96.5t-96.5 -143t-35 -174.5v-444z" />
<glyph unicode="P" horiz-adv-x="1165" d="M156 51v1446q0 23 16 38t39 15h2h483q92 0 175 -35.5t144.5 -97t97.5 -143.5t36 -176t-36 -176t-97.5 -143.5t-144.5 -96.5t-175 -35h-434v-596q0 -23 -14.5 -37t-36.5 -14q-23 0 -39 14.5t-16 36.5zM262 752h434q72 0 134.5 27.5t109.5 74.5t74.5 109.5t27.5 134.5 t-27.5 135t-74.5 110.5t-109.5 75t-134.5 27.5h-434v-694z" />
<glyph unicode="Q" horiz-adv-x="1368" d="M123 553v444q0 115 43 215.5t118.5 176t176 118.5t215.5 43q111 0 212 -41t181 -118q78 -80 119 -181.5t41 -212.5v-444q0 -98 -34 -188.5t-93 -163.5l115 -113q16 -14 16 -34.5t-16 -37.5q-16 -16 -39 -16t-37 16l-113 113q-72 -59 -161 -94t-191 -35q-115 0 -215.5 44 t-176 119t-118.5 175t-43 215zM227 553q0 -92 35 -173t96.5 -142.5t143.5 -96.5t174 -35t173 35t142.5 96.5t96 142.5t34.5 173v444q0 90 -32.5 172t-98.5 144q-129 133 -315 133q-92 0 -174 -35t-143.5 -96.5t-96.5 -143t-35 -174.5v-444z" />
<glyph unicode="R" horiz-adv-x="1275" d="M156 51v1446q0 23 14 38t37 15h4h481q94 0 176 -35.5t143.5 -97t97.5 -143.5t36 -176q0 -82 -27.5 -156t-76 -132t-115 -99t-142.5 -58l361 -573q7 -11 7 -25q0 -5 -1 -11q-4 -20 -23 -36q-13 -8 -27 -8q-7 0 -13 1q-22 5 -31 26l-393 620h-406v-596q0 -23 -14.5 -37 t-36.5 -14q-23 0 -37 14.5t-14 36.5zM258 752h434q72 0 135.5 27.5t110.5 74.5t73.5 109.5t26.5 134.5t-26.5 135t-73.5 110.5t-110.5 75t-135.5 27.5h-434v-694z" />
<glyph unicode="S" horiz-adv-x="1077" d="M61 51q0 23 14.5 39t37.5 16h600q82 0 136 56.5t54 136.5q0 82 -57 137l-682 602q-43 43 -67.5 99.5t-24.5 115.5t22.5 113.5t63.5 97.5q90 86 213 86h600q23 0 38 -15q13 -13 13 -33v-5q0 -23 -14.5 -37t-36.5 -14h-600q-78 0 -138 -55q-55 -59 -55 -138q0 -80 58 -137 l679 -602q49 -43 72 -99.5t23 -115.5q0 -63 -23.5 -117.5t-64.5 -94.5t-94.5 -63.5t-114.5 -23.5h-600q-23 0 -37.5 16.5t-14.5 34.5z" />
<glyph unicode="T" horiz-adv-x="1099" d="M37 1497q0 23 15.5 38t37.5 15h922q23 0 37 -15t14 -38t-14.5 -37t-36.5 -14h-406v-1395q0 -23 -15.5 -37t-37.5 -14q-23 0 -37 14.5t-14 36.5v1395h-412q-23 0 -38 14.5t-15 36.5z" />
<glyph unicode="U" horiz-adv-x="1384" d="M139 553v944q0 23 15.5 38t38.5 15t38 -15t15 -38v-944q0 -92 34.5 -173t96 -142.5t142.5 -96.5t173 -35t174 35t143.5 96.5t97.5 142.5t36 173v944q0 23 14 38t37 15t37 -15t14 -38v-944q0 -115 -43 -215t-117.5 -175t-176 -119t-216.5 -44t-215 44t-175 119t-119 175 t-44 215z" />
<glyph unicode="V" horiz-adv-x="1411" d="M78 1479q-2 9 -2 18q0 13 5 23q9 18 30 28q9 2 18 2q13 0 23 -5q18 -9 26 -27l508 -1412h35l512 1412q7 18 27 27q10 5 21 5q9 0 19 -4q23 -8 32 -26q4 -9 4 -19q0 -11 -5 -22l-522 -1444q-14 -35 -51 -35h-109q-37 0 -51 35z" />
<glyph unicode="W" horiz-adv-x="1978" d="M115 1485q-2 9 -2 17q0 13 6 24q10 18 33 22q8 2 15 2q14 0 26 -8q18 -12 22 -31l350 -1405h31l356 1405q6 39 52 39q16 0 30.5 -11t18.5 -28l338 -1405h30l344 1405q6 18 24.5 30.5t41.5 6.5q23 -4 33 -22q7 -13 7 -29q0 -6 -1 -12l-357 -1444q-4 -18 -19 -29.5 t-32 -11.5h-112q-41 0 -52 41l-299 1235l-311 -1235q-14 -41 -51 -41h-115q-39 0 -49 41z" />
<glyph unicode="X" horiz-adv-x="1372" d="M134 42q-1 5 0 11q0 15 7 31l482 692l-478 692q-12 16 -10 39t23 35q11 7 26 7q6 0 12 -1q22 -4 35 -20l455 -656l455 656q11 16 33 20q6 1 12 1q15 0 26 -7q16 -12 20.5 -34.5t-5.5 -39.5l-479 -692l483 -692q8 -15 8 -31q0 -5 -1 -9q-3 -20 -21 -36q-13 -8 -27 -8 q-6 0 -13 1q-22 5 -36 22l-455 663l-457 -663q-13 -15 -35 -21q-7 -2 -13 -2q-14 0 -25 8q-18 14 -22 34z" />
<glyph unicode="Y" horiz-adv-x="1214" d="M60 1507q3 23 20 35q14 7 29 7q6 0 11 -1q21 -4 36 -20l452 -656l457 656q10 16 32 20q6 1 12 1q15 0 28 -7q18 -12 21 -34q1 -6 1 -11q0 -16 -8 -29l-487 -706v-711q0 -23 -15.5 -37t-38.5 -14t-38 14.5t-15 36.5v711q-4 4 -6 7t-6 7l-475 692q-11 13 -11 30q0 4 1 9z " />
<glyph unicode="Z" horiz-adv-x="1116" d="M53 51v90q4 8 6 16.5t7 14.5l882 1239v35h-842q-20 0 -36.5 14.5t-16.5 36.5q0 23 16.5 38t36.5 15h898q20 0 36 -16q14 -14 15 -37v-104q0 -20 -8 -31l-887 -1239v-17h844q23 0 37 -16t14 -39t-14.5 -37t-36.5 -14h-898q-18 0 -38 16q-14 18 -15 35z" />
<glyph unicode="[" horiz-adv-x="600" d="M143 217v1110q0 51 18.5 95t50.5 77t76 51.5t93 18.5h121q23 0 37 -14.5t14 -36.5q0 -23 -14.5 -37.5t-36.5 -14.5h-121q-53 0 -93 -40t-40 -99v-1110q0 -55 40 -95t93 -40h121q23 0 37 -14.5t14 -36.5q0 -23 -14.5 -37t-36.5 -14h-121q-49 0 -93 18t-76 51t-50.5 76 t-18.5 92z" />
<glyph unicode="\" horiz-adv-x="653" d="M23 1583q-4 18 5 38.5t29 29.5q23 4 42.5 -5.5t23.5 -27.5l498 -1548q10 -23 -2.5 -43.5t-30.5 -24.5q-23 -6 -41.5 3t-28.5 32z" />
<glyph unicode="]" horiz-adv-x="602" d="M43 31q0 23 15.5 37t35.5 14h123q57 0 96 40t39 95v1110q0 59 -39 99t-96 40h-123q-20 0 -35.5 14.5t-15.5 37.5t15.5 37t35.5 14h123q49 0 93 -18.5t76 -51.5t50.5 -77t18.5 -95v-1110q0 -49 -18.5 -92t-50.5 -76t-76 -51t-93 -18h-123q-20 0 -35.5 14t-15.5 37z" />
<glyph unicode="^" horiz-adv-x="925" d="M50.5 1047.5q-3.5 21.5 12.5 37.5l361 437q23 18 41 18q23 0 41 -18l360 -437q12 -16 10 -37.5t-18 -33.5q-16 -16 -37.5 -12t-34.5 20l-321 381l-322 -381q-16 -16 -36.5 -20.5t-36.5 12.5q-16 12 -19.5 33.5z" />
<glyph unicode="_" horiz-adv-x="970" d="M147 51q0 23 15.5 37t38.5 14h571q18 0 34.5 -14t16.5 -37t-16 -37t-35 -14h-571q-23 0 -38.5 14.5t-15.5 36.5z" />
<glyph unicode="`" horiz-adv-x="542" d="M171 1776.5q1 21.5 17 38.5q14 14 36 15t36 -15l78 -78q16 -16 15 -37t-15 -35q-16 -16 -37.5 -17t-38.5 13l-76 78q-16 16 -15 37.5z" />
<glyph unicode="a" d="M86 322q0 66 24.5 124t69.5 105q45 45 104.5 69.5t125.5 24.5h172h51q41 0 69 27q25 27 25 67v6v29q0 55 -37 92q-16 16 -38.5 26.5t-49.5 10.5h-94h-43h-250q-25 0 -40 14.5t-15 36.5q0 23 15 37.5t40 14.5h250h43h94q45 0 88 -16.5t76 -49.5q68 -68 68 -166v-160v-563 q0 -23 -14.5 -37t-37.5 -14t-39 14.5t-16 36.5v33q-90 -84 -217 -84h-100q-68 0 -126.5 25.5t-102.5 68.5t-69.5 101.5t-25.5 126.5zM193 322q0 -45 17 -85t46 -70t69 -47.5t85 -17.5h100q43 0 83 17.5t69 46.5q66 66 65 156v243q-23 -16 -46.5 -21t-47.5 -5h-51h-172 q-92 0 -154.5 -62.5t-62.5 -154.5z" />
<glyph unicode="b" horiz-adv-x="927" d="M156 49v903v2v545q0 23 14 37t37 14q25 0 39 -14t14 -37v-493h234q80 0 154.5 -30t131.5 -89q59 -57 89 -131t30 -154v-199q0 -82 -29.5 -155.5t-89.5 -130.5q-57 -55 -132 -86t-154 -31h-246l-41 -2q-8 0 -19.5 3t-17.5 11q-14 14 -14 37zM260 102h234q125 0 211 91 q43 41 65.5 96t22.5 114v199q0 125 -88 213q-41 41 -95.5 64.5t-115.5 23.5h-234v-801z" />
<glyph unicode="c" horiz-adv-x="817" d="M111 393v221q0 80 30.5 152t84 125t125 84t155.5 31h184q23 0 38 -14.5t15 -37.5t-15 -37t-38 -14h-184q-59 0 -112.5 -22.5t-92.5 -62.5t-61.5 -92t-22.5 -112v-221q0 -61 22.5 -113.5t61.5 -92.5t92 -62.5t113 -22.5h184q23 0 38 -14t15 -37t-15 -37t-38 -14h-184 q-84 0 -155.5 30.5t-125 84t-84 125t-30.5 153.5z" />
<glyph unicode="d" horiz-adv-x="929" d="M29 408v196q0 84 31.5 158t86 129t128 87t157.5 32h236v493q0 23 14 37t37 14t37 -14t14 -37v-1452q0 -8 -2 -17t-12 -20q-14 -14 -37 -14l-287 2q-84 0 -157.5 32t-128 87t-86 129t-31.5 158zM133 408q0 -61 23.5 -116.5t64.5 -96.5t95.5 -65t115.5 -24h236v340v459 h-236q-61 0 -115.5 -23.5t-95.5 -65.5t-64.5 -96t-23.5 -116v-196z" />
<glyph unicode="e" d="M119 393v221q0 78 28.5 150t88.5 127q55 57 126.5 86t151.5 29q164 0 279 -115q55 -55 84.5 -127t29.5 -150v-100q0 -23 -15 -38t-38 -15h-631v-68q0 -61 22.5 -113.5t62.5 -92.5t92.5 -62.5t113.5 -22.5h223q23 0 37 -14t14 -37t-14 -37t-37 -14h-223q-82 0 -153.5 30.5 t-126 84t-85 125t-30.5 153.5zM223 565h578v49q0 55 -21.5 108.5t-62.5 94.5q-82 86 -203 86q-59 0 -111.5 -22.5t-93.5 -63.5t-63.5 -94t-22.5 -109v-49z" />
<glyph unicode="f" horiz-adv-x="749" d="M147 51v1174q0 68 26 127t71 102t103.5 68.5t125.5 25.5h223q23 0 38.5 -14t15.5 -37t-15.5 -37t-38.5 -14h-223q-45 0 -85 -17.5t-70.5 -48t-48 -70.5t-17.5 -85v-219h387q23 0 38 -14.5t15 -37.5t-15 -37t-38 -14h-387v-852q0 -23 -14.5 -37t-36.5 -14 q-23 0 -38.5 14.5t-15.5 36.5z" />
<glyph unicode="g" horiz-adv-x="1021" d="M90 393v221q0 78 28.5 150t86.5 127q53 57 125.5 86t150.5 29q86 0 160 -33t131 -92v73q0 23 14.5 37.5t36.5 14.5q23 0 39.5 -14.5t16.5 -37.5v-923q0 -82 -32 -153t-86 -124t-127 -83.5t-153 -30.5h-260q-20 0 -35.5 14t-15.5 37t15.5 37t35.5 14h260q59 0 111.5 22.5 t92.5 61.5t63.5 92t23.5 113v92q-57 -59 -131 -91t-160 -32q-78 0 -150.5 29.5t-125.5 85.5q-57 53 -86 125.5t-29 152.5zM195 393q0 -119 81 -207q43 -39 95.5 -61.5t109.5 -22.5q59 0 111.5 22.5t92.5 62.5t63.5 92.5t23.5 113.5v221q0 59 -23.5 111.5t-63.5 92.5 t-92 62.5t-112 22.5q-115 0 -205 -86q-41 -41 -61 -94t-20 -109v-221z" />
<glyph unicode="h" d="M156 49v1450q0 23 16 37t35 14q25 0 40 -14t15 -37v-616q0 4 3 4t5 4q115 115 279 115q82 0 153.5 -31t125 -84t85 -125t31.5 -152v-563q0 -23 -15.5 -37t-37.5 -14q-20 0 -36.5 14.5t-16.5 36.5v563q0 59 -22.5 111.5t-61.5 92.5t-92.5 62.5t-112.5 22.5 q-113 0 -203 -86q-41 -41 -62.5 -94t-21.5 -109v-565q0 -20 -15.5 -35.5t-39.5 -15.5q-18 0 -34.5 15.5t-16.5 35.5z" />
<glyph unicode="i" horiz-adv-x="366" d="M123 55v899q0 23 14.5 37.5t36.5 14.5q23 0 38 -14.5t15 -37.5v-899q0 -25 -15 -39t-38 -14q-51 0 -51 53zM123 1188q0 23 14.5 37t36.5 14q23 0 38 -14.5t15 -36.5q0 -25 -15 -40t-38 -15t-37 15t-14 40z" />
<glyph unicode="j" horiz-adv-x="563" d="M0 -309q0 23 14.5 37t36.5 14q59 0 111.5 22.5t92.5 61.5t63.5 92t23.5 113v923q0 23 13.5 37.5t37.5 14.5q23 0 37 -14.5t14 -37.5v-923q0 -82 -30.5 -153t-85 -124t-126 -83.5t-151.5 -30.5q-23 0 -37 14t-14 37zM342 1188q0 23 13.5 37t37.5 14q23 0 37 -14.5 t14 -36.5q0 -25 -14 -40t-37 -15q-25 0 -38 15t-13 40z" />
<glyph unicode="k" horiz-adv-x="890" d="M156 51v1446q0 23 14 37t37 14q25 0 38 -14t13 -37v-672h176l238 172q16 10 38.5 7t32.5 -17q12 -20 10.5 -42.5t-22.5 -33.5l-215 -153l340 -684q6 -11 6 -23q0 -8 -3 -17q-7 -22 -28 -32q-10 -4 -20 -4q-9 0 -19 3q-22 7 -32 26l-344 696h-158v-672q0 -23 -13.5 -37 t-37.5 -14q-23 0 -37 14.5t-14 36.5z" />
<glyph unicode="l" horiz-adv-x="438" d="M156 55v1444q0 23 15 37t40 14q18 0 34.5 -14t16.5 -37v-1444q0 -25 -16.5 -39t-34.5 -14q-25 0 -40 14.5t-15 38.5z" />
<glyph unicode="m" horiz-adv-x="1669" d="M156 51v903q0 23 14 37.5t37 14.5t38 -14.5t15 -37.5v-34q92 86 219 86h84q86 0 158 -40t117 -106q43 66 113.5 106t156.5 40h84q66 0 125 -26t103 -69t71 -102t27 -127v-631q0 -23 -15.5 -37t-38.5 -14t-38 14.5t-15 36.5v631q0 45 -17.5 85t-47 70.5t-69.5 48t-85 17.5 h-84q-45 0 -85 -17.5t-68.5 -48t-46 -70.5t-17.5 -85v-631q0 -23 -16.5 -37t-36.5 -14q-23 0 -38.5 14.5t-15.5 36.5v631q0 45 -17 85t-48 70.5t-71 48t-85 17.5h-84q-43 0 -83 -17.5t-69.5 -46t-47 -68.5t-19.5 -83v-637q0 -23 -15.5 -37t-37.5 -14q-23 0 -37 14.5 t-14 36.5z" />
<glyph unicode="n" horiz-adv-x="1087" d="M156 51v903q0 23 15 37.5t38 14.5t38 -14.5t15 -37.5v-34q90 86 219 86h135q68 0 127.5 -26t103.5 -69t70.5 -102t26.5 -127v-631q0 -23 -16.5 -37t-34.5 -14q-25 0 -40 14.5t-15 36.5v631q0 45 -17.5 85t-48.5 70.5t-70.5 48t-85.5 17.5h-135q-45 0 -84 -17.5t-68.5 -46 t-47 -68.5t-19.5 -83v-637q0 -23 -15.5 -37t-37.5 -14q-23 0 -38 14.5t-15 36.5z" />
<glyph unicode="o" horiz-adv-x="1024" d="M119 393v221q0 78 29.5 150t84.5 127q53 57 126 86t153 29t152 -29t127 -86q55 -55 84.5 -127t29.5 -150v-221q0 -82 -30.5 -153.5t-85 -125t-126 -84t-151.5 -30.5q-82 0 -153.5 30.5t-125 84t-84 125t-30.5 153.5zM223 393q0 -61 22.5 -113.5t61.5 -92.5t92.5 -62.5 t112.5 -22.5t111.5 22.5t92.5 62.5t63.5 92.5t23.5 113.5v221q0 55 -22.5 108.5t-63.5 94.5q-86 86 -205 86q-117 0 -207 -86q-39 -41 -60.5 -94t-21.5 -109v-221z" />
<glyph unicode="p" horiz-adv-x="989" d="M156 -309v1263q0 23 15 37.5t38 14.5t38 -14.5t15 -37.5v-73q0 4 3 5t5 5q115 115 279 115q80 0 152.5 -29t125.5 -86q59 -55 88 -127t29 -150v-221q0 -82 -30.5 -153.5t-85 -125t-126 -84t-153.5 -30.5q-84 0 -159 31.5t-128 91.5v-432q0 -23 -15.5 -37t-37.5 -14 q-23 0 -38 14t-15 37zM262 393q0 -61 22.5 -113.5t61.5 -92.5t91 -62.5t112 -22.5q61 0 113.5 22.5t92.5 62.5t62.5 92.5t22.5 113.5v221q0 55 -22.5 108.5t-61.5 94.5q-86 86 -207 86t-203 -86q-41 -41 -62.5 -94t-21.5 -109v-221z" />
<glyph unicode="q" horiz-adv-x="987" d="M41 393v221q0 78 29.5 150t85.5 127q53 57 125.5 86t152.5 29q86 0 160 -33t131 -92v73q0 23 14.5 37.5t36.5 14.5q23 0 37 -14.5t14 -37.5v-1263q0 -23 -14 -37t-37 -14t-37 14t-14 37v432q-57 -59 -131 -91t-160 -32q-82 0 -153.5 30.5t-125 84t-84 125t-30.5 153.5z M145 393q0 -61 22.5 -113.5t61.5 -92.5t92.5 -62.5t112.5 -22.5t111.5 22.5t92.5 62.5t63.5 92.5t23.5 113.5v221q0 59 -23.5 111.5t-63.5 92.5t-92 62.5t-112 22.5q-117 0 -207 -86q-39 -41 -60.5 -94t-21.5 -109v-221z" />
<glyph unicode="r" horiz-adv-x="673" d="M156 51v903q0 23 16 37.5t35 14.5q25 0 40 -14.5t15 -37.5v-30q92 82 217 82h139q23 0 37.5 -14.5t14.5 -37.5t-14.5 -37t-37.5 -14h-139q-43 0 -84 -16.5t-69 -46.5q-63 -68 -64 -154v-12v-623q0 -23 -15.5 -37t-39.5 -14q-18 0 -34.5 14.5t-16.5 36.5z" />
<glyph unicode="s" horiz-adv-x="827" d="M78 51q0 23 14 37t37 14h401q20 0 38 8.5t34 20.5q16 16 22.5 34.5t6.5 37.5q0 23 -8.5 41t-20.5 35l-430 374q-63 63 -63 152q0 84 61 143q57 61 145 62h351q23 0 38 -14.5t15 -37.5q0 -25 -15.5 -39t-37.5 -14h-351q-41 0 -71 -31q-29 -29 -29 -69q0 -23 6 -42.5 t23 -31.5q4 -4 428 -379q65 -58 65 -146q0 -85 -61 -147q-59 -59 -146 -59h-401q-23 0 -37 14.5t-14 36.5z" />
<glyph unicode="t" horiz-adv-x="684" d="M139 393v1104q0 23 16.5 37t39.5 14q20 0 35.5 -14t15.5 -37v-491h313q23 0 38 -14.5t15 -37.5t-15 -37t-38 -14h-313v-510q0 -61 22.5 -113.5t62.5 -92.5t92 -62.5t114 -22.5h96q20 0 35.5 -14t15.5 -37t-15.5 -37t-35.5 -14h-96q-84 0 -156 30.5t-126 84t-85 125 t-31 153.5z" />
<glyph unicode="u" horiz-adv-x="1058" d="M143 324v630q0 23 15.5 37.5t36.5 14.5q23 0 38 -14.5t15 -37.5v-630q0 -45 17.5 -85t48 -71t70.5 -48.5t85 -17.5h104q45 0 84 16.5t69 46.5t48.5 68.5t18.5 81.5v639q0 23 16 37.5t39 14.5q20 0 35.5 -14.5t15.5 -37.5v-903q0 -23 -15.5 -37t-35.5 -14q-23 0 -39 14.5 t-16 36.5v33q-43 -41 -98.5 -62.5t-121.5 -21.5h-104q-68 0 -126 25.5t-103 68.5t-71 102.5t-26 127.5z" />
<glyph unicode="v" horiz-adv-x="976" d="M78 934q-2 9 -2 18q0 13 5 23q9 18 32 29q6 1 13 1q12 1 26 -5q20 -8 24 -31l309 -860l314 860q8 23 26 31q12 5 26 5q7 0 15 -1q20 -10 30 -29q6 -12 5 -24q0 -8 -2 -17l-328 -899q-12 -35 -51 -35h-65q-39 0 -52 35z" />
<glyph unicode="w" horiz-adv-x="1368" d="M117 940q-1 6 -1 11q0 15 7 29q10 20 31 24q23 4 42 -7.5t23 -29.5l209 -840l211 840q14 39 53 39q16 0 30.5 -11.5t18.5 -27.5l201 -838l207 838q6 18 23 29.5t40 7.5t33 -24q7 -14 7 -28q0 -6 -1 -12l-223 -899q-10 -41 -51 -41h-70q-41 0 -51 41l-166 690l-176 -690 q-12 -41 -53 -41h-66q-43 0 -55 41z" />
<glyph unicode="x" horiz-adv-x="964" d="M106 40l-2 12q0 16 11 32l288 418l-288 416q-10 20 -7 40.5t21 32.5q13 8 31 8h8q22 -2 35 -22l266 -383l264 383q11 20 33 22h8q18 0 33 -8q18 -12 21 -32.5t-9 -40.5l-289 -416l291 -418q11 -16 11 -33q0 -5 -1 -10q-4 -23 -20 -35q-14 -7 -30 -7q-6 0 -13 1 q-23 4 -33 23l-266 385l-268 -385q-10 -19 -33 -23q-7 -1 -14 -1q-14 0 -25 7q-17 12 -23 34z" />
<glyph unicode="y" horiz-adv-x="1003" d="M102 972q7 19 25 32q11 5 21 5t18 -3q20 -9 31 -29l344 -692l325 692q10 20 30 29q9 3 18 3l22 -5q20 -10 28 -31q3 -10 3 -20q0 -11 -4 -21l-594 -1264q-10 -20 -32 -28q-10 -4 -18 -4q-12 0 -22 6q-23 10 -29 29.5t2 41.5l213 451l-379 766q-6 13 -6 25q0 9 4 17z" />
<glyph unicode="z" horiz-adv-x="862" d="M98 51v72q4 10 6 17t9 16l544 747h-503q-23 0 -39.5 14.5t-16.5 36.5q0 23 16.5 37.5t39.5 14.5h559q25 0 37 -15q14 -14 14 -37v-67q0 -18 -8 -29l-551 -752v-4h508q23 0 37 -14t14 -37t-14.5 -37t-36.5 -14h-559q-27 0 -37 14q-18 12 -19 37z" />
<glyph unicode="|" horiz-adv-x="438" d="M156 -113v1774q0 23 15 38t38 15t38 -15.5t15 -37.5v-1774q0 -23 -15.5 -37t-37.5 -14q-23 0 -38 14.5t-15 36.5z" />
<glyph unicode="~" horiz-adv-x="1282" d="M241 784q3 47 22.5 88t53 74t78.5 51q45 14 95.5 13.5t91.5 -23.5q90 -45 118 -135q16 -55 66.5 -76.5t105.5 -3.5q53 16 74 64q18 53 6 102q-10 23 -0.5 44.5t31.5 29.5q16 4 36 -4t30 -31q16 -45 15 -92t-24 -94q-16 -41 -55 -73t-80 -48q-47 -18 -94 -15.5t-88 23 t-74 55.5t-51 82q-8 29 -24.5 47.5t-38.5 28.5q-23 10 -48.5 12t-56.5 -8q-47 -18 -73.5 -68.5t-10.5 -103.5q6 -23 -2 -40t-25 -24q-20 -8 -38.5 1.5t-26.5 29.5q-16 47 -13 94z" />
<glyph unicode="&#xa3;" horiz-adv-x="1073" d="M158 664q0 16 13 31.5t30 15.5h188q-4 8 -10 13t-10 13q-27 25 -45.5 53.5t-32.5 61.5h-90q-16 0 -29.5 13.5t-13.5 31.5q0 23 13 36t30 13h63q-4 12 -4 23.5v25.5q0 74 27.5 142.5t81.5 119.5q51 53 119.5 80t139 27t139.5 -26.5t122 -80.5q16 -14 16 -35.5t-16 -35.5 q-16 -16 -37 -16.5t-37 16.5q-41 37 -89 56.5t-98 19.5t-98.5 -19.5t-85.5 -56.5q-80 -80 -79 -191q0 -14 2 -25.5t2 -23.5h321q23 0 37 -13t14 -36q0 -18 -14 -31.5t-37 -13.5h-282q8 -10 16 -20.5t20 -18.5q23 -23 38.5 -48.5t31.5 -53.5h176q23 0 37 -15.5t14 -31.5 q0 -20 -14 -34t-37 -14h-145q4 -14 4 -30.5v-32.5q0 -133 -74 -227q33 -8 84 -15l70 -14q51 -10 87 -4t57.5 18.5t30.5 23.5t11 11q10 18 31 24.5t39 -3.5q20 -12 25 -33t-5 -37q-2 -4 -18.5 -26.5t-52 -46t-91 -37t-135.5 2.5l-73 15q-39 6 -67 11t-53.5 6t-52 -4 t-63.5 -17q-8 0 -16 -6h-9q-6 -4 -14 -5q-18 0 -33.5 10.5t-19.5 28.5q-8 23 5 43.5t32 24.5q6 0 10 4h10q31 10 56.5 25.5t48.5 40.5q37 35 56 84t19 102q0 16 -1 32.5t-7 30.5h-235q-16 0 -29.5 13.5t-13.5 34.5z" />
<glyph unicode="&#xa5;" horiz-adv-x="1214" d="M177 1339q3 21 22 31q16 14 38.5 11t32.5 -21l336 -486l338 486q10 18 32.5 21t45.5 -11q16 -10 18 -30.5t-8 -41.5l-299 -434h125q23 0 35 -13t12 -32q0 -51 -47 -51h-190l-6 -8v-146h196q47 0 47 -47q0 -20 -12 -33.5t-35 -13.5h-196v-295q0 -23 -16.5 -38t-39.5 -15 q-16 0 -32.5 15.5t-16.5 37.5v295h-195q-18 0 -32.5 13.5t-14.5 33.5q0 23 14.5 35t32.5 12h195v146q-6 0 -6 4v4h-189q-18 0 -32.5 14.5t-14.5 36.5q0 18 14.5 31.5t32.5 13.5h123l-301 434q-10 20 -7 41z" />
<glyph unicode="&#xa7;" horiz-adv-x="1222" d="M197 928q0 53 18 103t57 85q29 27 57.5 40t57.5 26l-106 96q-43 35 -63.5 84t-20.5 104q0 102 77 185q76 76 183 75h303q109 0 184 -75q82 -82 82 -185q0 -23 -16.5 -38t-34.5 -15q-29 0 -42 15.5t-13 37.5q0 68 -50 113q-23 23 -51 35t-59 12h-303q-61 0 -109 -47 q-25 -23 -39 -51.5t-14 -61.5q0 -35 14.5 -62.5t38.5 -51.5q6 -4 26.5 -21.5t43.5 -38.5q27 -23 59 -53l287 -254l174 -156q45 -39 66.5 -90t21.5 -106q0 -45 -14.5 -85t-40 -73t-60 -56.5t-73.5 -35.5l100 -94q45 -39 66.5 -89t21.5 -106q0 -55 -21.5 -103t-57.5 -85 t-84 -57.5t-101 -20.5h-299q-113 0 -189 82q-39 35 -56 82t-17 102q0 51 51 51q49 0 49 -51q0 -29 12.5 -59.5t32.5 -54.5q45 -49 117 -50h299q33 0 61.5 13.5t50 36t34 52t12.5 62.5q0 35 -14.5 63.5t-37.5 53.5q-6 4 -34.5 29.5t-61.5 54.5q-37 33 -84 72l-280 247 l-127 113q-84 84 -84 201zM295 928q0 -66 53 -119q6 -4 26.5 -22.5t43.5 -38.5q27 -23 59 -54q47 -43 92 -82q39 -35 81 -71.5t73 -61.5h39q66 0 112 44t46 110q0 35 -14.5 63.5t-37.5 57.5q-6 4 -34.5 28.5t-61.5 53.5q-37 33 -84 69l-63 64q-29 29 -64 59.5t-67 58.5h-37 q-29 0 -57.5 -13t-51.5 -36q-25 -20 -39 -51t-14 -59z" />
<glyph unicode="&#xa9;" horiz-adv-x="1388" d="M104 778q0 123 46.5 230.5t126 187.5t187 126t230.5 46q121 0 227.5 -46t186.5 -126t126 -187.5t46 -230.5q0 -121 -46 -228.5t-126 -188t-186.5 -128t-227.5 -47.5q-123 0 -230.5 47.5t-187 128t-126 188t-46.5 228.5zM201 778q0 -102 37.5 -191t104.5 -157t157 -106.5 t194 -38.5q102 0 191.5 38.5t156 106.5t105.5 157t39 191t-39 192.5t-105.5 157t-155.5 105.5t-192 39q-104 0 -194 -39t-157 -105.5t-104.5 -156.5t-37.5 -193zM418 684v186q0 53 20.5 101.5t56 84.5t83 56.5t102.5 20.5h111q20 0 37.5 -16.5t17.5 -33.5q0 -18 -17.5 -31.5 t-37.5 -13.5h-111q-35 0 -65.5 -14t-53 -36.5t-36 -53.5t-13.5 -64v-186q0 -68 49 -116t119 -48h111q20 0 37.5 -14t17.5 -35q0 -20 -17.5 -33.5t-37.5 -13.5h-111q-55 0 -102.5 20.5t-83 55.5t-56 82t-20.5 102z" />
<glyph unicode="&#xab;" horiz-adv-x="980" d="M12 774q0 23 19 41l436 361q16 12 38 9.5t34 -18.5q16 -16 12 -37.5t-21 -33.5l-380 -322l380 -321q16 -16 20.5 -37t-11.5 -37q-12 -16 -34 -19.5t-38 13.5l-436 360q-18 23 -19 41zM340 774q0 23 18 41l437 361q16 12 37.5 9.5t33.5 -18.5q16 -16 12 -37.5t-20 -33.5 l-381 -322l381 -321q16 -16 20.5 -37t-12.5 -37q-12 -16 -33.5 -19.5t-37.5 13.5l-437 360q-18 23 -18 41z" />
<glyph unicode="&#xad;" horiz-adv-x="866" d="M100 774q0 23 16.5 37t39.5 14h542q18 0 35 -14t17 -37t-16.5 -37t-35.5 -14h-542q-23 0 -39.5 14.5t-16.5 36.5z" />
<glyph unicode="&#xae;" horiz-adv-x="1355" d="M88 778q0 123 47 230.5t128 187.5t188.5 126t230.5 46q121 0 227.5 -46t185.5 -126t125 -187.5t46 -230.5q0 -121 -46 -228.5t-125 -188t-185.5 -128t-227.5 -47.5q-123 0 -230.5 47.5t-188.5 128t-128 188t-47 228.5zM182 778q0 -102 39 -191t106.5 -157t159 -106.5 t195.5 -38.5q100 0 190.5 38.5t156 106.5t104 157t38.5 191t-38.5 192.5t-104 157t-156 105.5t-190.5 39q-104 0 -195.5 -39t-159 -105.5t-106.5 -156.5t-39 -193zM457 471v270v7v6v329q0 16 16 33t37 17h203q41 0 81 -18.5t68 -47.5q37 -31 53.5 -70t16.5 -86 q0 -43 -16.5 -81.5t-53.5 -67.5q-16 -16 -32.5 -31.5t-38.5 -23.5l137 -209q10 -20 5 -38t-18 -26q-49 -23 -73 17l-158 243h-131v-223q0 -20 -13.5 -33.5t-29.5 -13.5q-20 0 -36.5 13.5t-16.5 33.5zM553 791h160q51 0 86 34q16 20 27.5 42t11.5 44q0 25 -11.5 47.5 t-27.5 38.5q-37 41 -86 41h-160v-247z" />
<glyph unicode="&#xb0;" horiz-adv-x="460" d="M47 1688q0 61 44 105t108 44q59 0 104 -44t45 -105q0 -31 -12 -57.5t-31 -49.5q-45 -45 -106 -45q-63 0 -109 45q-43 47 -43 107zM123 1688q0 -27 24 -52q8 -10 21.5 -15t30.5 -5q12 0 25.5 5t23.5 15q23 20 22 52q0 29 -21 50t-50 21q-31 0 -53.5 -21.5t-22.5 -49.5z " />
<glyph unicode="&#xba;" horiz-adv-x="479" d="M96 1784q0 61 44 105t108 44q59 0 104 -44t45 -105q0 -31 -12 -57.5t-31 -49.5q-45 -45 -106 -45q-63 0 -109 45q-43 47 -43 107zM172 1784q0 -27 25 -51q8 -10 21 -15.5t30 -5.5q12 0 25.5 5t23.5 16q23 20 22 51q0 29 -21 50t-50 21q-31 0 -53.5 -21.5t-22.5 -49.5z " />
<glyph unicode="&#xbb;" horiz-adv-x="966" d="M77 415.5q3 20.5 19 37.5l381 321l-381 322q-16 12 -19 33.5t11 37.5q16 16 36.5 18.5t37.5 -9.5l436 -361q6 -8 11 -19.5t5 -21.5t-5 -20.5t-11 -20.5l-436 -360q-16 -16 -37 -13.5t-37 19.5q-14 16 -11 36.5zM404.5 1129.5q-3.5 21.5 11.5 37.5q16 16 36.5 18.5 t36.5 -9.5l437 -361q6 -8 11 -19.5t5 -21.5t-5 -20.5t-11 -20.5l-437 -360q-16 -16 -36.5 -13.5t-36.5 19.5q-14 16 -11 36.5t19 37.5l381 321l-381 322q-16 12 -19.5 33.5z" />
<glyph unicode="&#xbf;" horiz-adv-x="847" d="M8 365q0 76 29 142t78 115.5t115.5 78t142.5 28.5q80 0 137 53q27 31 41 66t14 76v125q0 25 16.5 40t34.5 15q25 0 40.5 -15.5t15.5 -39.5v-125q0 -59 -22.5 -115.5t-63.5 -97.5q-88 -88 -213 -88q-53 0 -101.5 -20.5t-83 -55.5t-55 -82t-20.5 -100t20.5 -101.5t55 -84.5 t82.5 -56.5t102 -20.5h407q23 0 37 -14t14 -37t-14 -37t-37 -14h-407q-76 0 -142.5 27.5t-115.5 77t-78 116t-29 144.5zM565 1477q0 23 16.5 37t34.5 14q25 0 40.5 -14.5t15.5 -36.5q0 -23 -15.5 -37.5t-40.5 -14.5q-18 0 -34.5 14.5t-16.5 37.5z" />
<glyph unicode="&#xc0;" horiz-adv-x="1413" d="M70 70l495 1443q14 37 49 37h160q37 0 51 -37l500 -1443q6 -20 -3 -40t-32 -28q-20 -8 -39.5 2t-25.5 33l-164 473h-729l-162 -473q-8 -23 -27.5 -33t-40.5 -2q-18 8 -29.5 27.5t-2.5 40.5zM371 616h653l-287 830h-84zM599 1776.5q1 21.5 17 38.5q14 14 36 15t36 -15 l78 -78q16 -16 15 -37t-15 -35q-16 -16 -37.5 -17t-38.5 13l-76 78q-16 16 -15 37.5z" />
<glyph unicode="&#xc1;" horiz-adv-x="1413" d="M70 70l495 1443q14 37 49 37h160q37 0 51 -37l500 -1443q6 -20 -3 -40t-32 -28q-20 -8 -39.5 2t-25.5 33l-164 473h-729l-162 -473q-8 -23 -27.5 -33t-40.5 -2q-18 8 -29.5 27.5t-2.5 40.5zM371 616h653l-287 830h-84zM634 1702.5q-1 21.5 13 38.5l78 76q16 16 37.5 15 t38.5 -17q14 -14 15 -36t-15 -36l-78 -78q-16 -16 -37 -15t-35 15q-16 16 -17 37.5z" />
<glyph unicode="&#xc2;" horiz-adv-x="1413" d="M70 70l495 1443q14 37 49 37h160q37 0 51 -37l500 -1443q6 -20 -3 -40t-32 -28q-20 -8 -39.5 2t-25.5 33l-164 473h-729l-162 -473q-8 -23 -27.5 -33t-40.5 -2q-18 8 -29.5 27.5t-2.5 40.5zM371 616h653l-287 830h-84zM425 1776.5q1 21.5 17 38.5q14 14 36 15t36 -15 l78 -78q16 -16 15 -37t-15 -35q-16 -16 -38 -17t-38 13l-76 78q-16 16 -15 37.5zM773.5 1702.5q-1.5 21.5 12.5 38.5l78 76q16 16 38 15t38 -17q14 -14 15 -36t-15 -36l-78 -78q-16 -16 -36.5 -15t-34.5 15q-16 16 -17.5 37.5z" />
<glyph unicode="&#xc3;" horiz-adv-x="1413" d="M70 70l495 1443q14 37 49 37h160q37 0 51 -37l500 -1443q6 -20 -3 -40t-32 -28q-20 -8 -39.5 2t-25.5 33l-164 473h-729l-162 -473q-8 -23 -27.5 -33t-40.5 -2q-18 8 -29.5 27.5t-2.5 40.5zM371 616h653l-287 830h-84zM422 1665q-29 66 2 127t94 84q35 10 69 10t64 -16 q25 -16 47.5 -41t32.5 -53q10 -27 35 -38.5t53 -0.5q27 6 43 30q4 8 5 23.5t-3 30.5q-10 20 -2 38.5t27 26.5q16 4 35.5 -3t29.5 -30q6 -29 7.5 -62.5t-15.5 -61.5q-29 -63 -94 -82q-33 -10 -65.5 -7.5t-61.5 15t-50.5 36t-33.5 56.5q-10 23 -35 37q-4 4 -18.5 5t-30.5 -5 q-25 -8 -40 -33t-5 -53q6 -18 -1.5 -38t-23.5 -26q-16 -8 -35.5 1.5t-29.5 29.5z" />
<glyph unicode="&#xc4;" horiz-adv-x="1429" d="M86 70l496 1443q14 37 49 37h160q37 0 51 -37l497 -1443q8 -20 -1 -40t-31 -28q-23 -8 -41.5 2t-26.5 33l-164 473h-725l-164 -473q-10 -23 -28.5 -33t-36.5 -2q-23 8 -32 27.5t-3 40.5zM383 616h655l-284 830h-84zM395 1604q0 23 15.5 38t38.5 15t38 -15.5t15 -37.5 q0 -23 -15.5 -38.5t-37.5 -15.5q-23 0 -38.5 15.5t-15.5 38.5zM918 1604q0 23 15 38t38 15t38 -15.5t15 -37.5q0 -23 -15.5 -38.5t-37.5 -15.5q-23 0 -38 15.5t-15 38.5z" />
<glyph unicode="&#xc5;" horiz-adv-x="1390" d="M70 70l495 1443q14 37 49 37h160q37 0 51 -37l500 -1443q6 -20 -3 -40t-32 -28q-20 -8 -39.5 2t-25.5 33l-164 473h-729l-162 -473q-8 -23 -27.5 -33t-40.5 -2q-18 8 -29.5 27.5t-2.5 40.5zM371 616h653l-287 830h-84zM543 1784q0 61 44 105t107 44q59 0 104.5 -44 t45.5 -105q0 -31 -12.5 -57.5t-30.5 -49.5q-46 -45 -107 -45q-63 0 -108 45q-43 47 -43 107zM618 1784q0 -27 25 -51q8 -10 21.5 -15.5t29.5 -5.5q12 0 25.5 5t23.5 16q23 20 23 51q0 29 -21.5 50t-50.5 21q-31 0 -53.5 -21.5t-22.5 -49.5z" />
<glyph unicode="&#xc7;" horiz-adv-x="1024" d="M113 557v440q0 115 43 216.5t117.5 176t175 117.5t217.5 43h278q51 0 51 -51q0 -23 -14 -39t-37 -16h-278q-92 0 -174 -35t-142.5 -96.5t-95.5 -142t-35 -173.5v-440q0 -92 33 -174t96 -141q63 -66 144 -102t174 -36h278q51 0 51 -51q0 -23 -14 -39t-37 -16h-182 q-16 0 -28.5 -13.5t-12.5 -31.5q0 -8 4 -17.5t12 -13.5q16 -16 35 -16q53 0 92 -38t39 -97t-39 -98.5t-92 -39.5h-92q-18 0 -31.5 13.5t-13.5 31.5t13.5 32t31.5 14h92q16 0 29.5 13t13.5 34q0 23 -13.5 36t-29.5 13q-27 0 -53.5 11t-48.5 28q-39 35 -39 94q0 16 3 27.5 t7 23.5q-104 4 -199.5 44t-167.5 118q-162 162 -161 391z" />
<glyph unicode="&#xc8;" horiz-adv-x="1134" d="M156 51v1446q0 23 14 38t37 15h866q23 0 38 -15t15 -38t-15 -37t-38 -14h-815v-545h719q23 0 38 -15.5t15 -37.5q0 -23 -15.5 -38t-37.5 -15h-719v-689h815q23 0 38 -16t15 -39t-15 -37t-38 -14h-866q-23 0 -37 14.5t-14 36.5zM538 1776.5q1 21.5 17 38.5q14 14 35.5 15 t36.5 -15l78 -78q16 -16 15 -37t-15 -35q-16 -16 -38 -17t-38 13l-76 78q-16 16 -15 37.5z" />
<glyph unicode="&#xc9;" horiz-adv-x="1134" d="M156 51v1446q0 23 14 38t37 15h866q23 0 38 -15t15 -38t-15 -37t-38 -14h-815v-545h719q23 0 38 -15.5t15 -37.5q0 -23 -15.5 -38t-37.5 -15h-719v-689h815q23 0 38 -16t15 -39t-15 -37t-38 -14h-866q-23 0 -37 14.5t-14 36.5zM585 1713q-1 22 13 38l78 76q16 16 37.5 15 t38.5 -17q14 -14 15 -36t-15 -36l-78 -78q-16 -16 -37 -15t-35 15q-16 16 -17 38z" />
<glyph unicode="&#xca;" horiz-adv-x="1134" d="M156 51v1446q0 23 14 38t37 15h866q23 0 38 -15t15 -38t-15 -37t-38 -14h-815v-545h719q23 0 38 -15.5t15 -37.5q0 -23 -15.5 -38t-37.5 -15h-719v-689h815q23 0 38 -16t15 -39t-15 -37t-38 -14h-866q-23 0 -37 14.5t-14 36.5zM394.5 1776.5q0.5 21.5 17.5 38.5 q14 14 35.5 15t35.5 -15l78 -78q16 -16 15 -37t-15 -35q-16 -16 -37.5 -17t-38.5 13l-75 78q-16 16 -15.5 37.5zM742.5 1702.5q-1.5 21.5 13.5 38.5l78 76q16 16 37.5 15t37.5 -17q14 -14 15.5 -36t-15.5 -36l-78 -78q-16 -16 -36.5 -15t-34.5 15q-16 16 -17.5 37.5z" />
<glyph unicode="&#xcb;" horiz-adv-x="1134" d="M156 51v1446q0 23 14 38t37 15h866q23 0 38 -15t15 -38t-15 -37t-38 -14h-815v-545h719q23 0 38 -15.5t15 -37.5q0 -23 -15.5 -38t-37.5 -15h-719v-689h815q23 0 38 -16t15 -39t-15 -37t-38 -14h-866q-23 0 -37 14.5t-14 36.5zM465 1710q0 23 14 37t37 14t38 -14t15 -37 t-15 -37t-38 -14t-37 14.5t-14 36.5zM793 1710q0 23 14 37t37 14t38 -14t15 -37t-15.5 -37t-37.5 -14q-23 0 -37 14.5t-14 36.5z" />
<glyph unicode="&#xcc;" horiz-adv-x="438" d="M87 1776.5q1 21.5 17 38.5q14 14 36 15t36 -15l78 -78q16 -16 15 -37t-15 -35q-16 -16 -37.5 -17t-38.5 13l-76 78q-16 16 -15 37.5zM156 51v1446q0 23 15 38t38 15t38 -15t15 -38v-1446q0 -23 -15.5 -37t-37.5 -14q-23 0 -38 14.5t-15 36.5z" />
<glyph unicode="&#xcd;" horiz-adv-x="438" d="M156 51v1446q0 23 15 38t38 15t38 -15t15 -38v-1446q0 -23 -15.5 -37t-37.5 -14q-23 0 -38 14.5t-15 36.5zM163 1702.5q-1 21.5 13 38.5l78 76q16 16 37.5 15t38.5 -17q14 -14 15 -36t-15 -36l-78 -78q-16 -16 -37 -15t-35 15q-16 16 -17 37.5z" />
<glyph unicode="&#xce;" horiz-adv-x="438" d="M-15 1776.5q1 21.5 17 38.5q14 14 35.5 15t36.5 -15l78 -78q16 -16 15 -37t-15 -35q-16 -16 -38 -17t-38 13l-76 78q-16 16 -15 37.5zM156 51v1446q0 23 15 38t38 15t38 -15t15 -38v-1446q0 -23 -15.5 -37t-37.5 -14q-23 0 -38 14.5t-15 36.5zM271.5 1702.5 q-1.5 21.5 13.5 38.5l77 76q16 16 38 15t38 -17q14 -14 15.5 -36t-15.5 -36l-78 -78q-16 -16 -36.5 -15t-34.5 15q-16 16 -17.5 37.5z" />
<glyph unicode="&#xcf;" horiz-adv-x="438" d="M53 1710q0 23 14 37t37 14t38.5 -14t15.5 -37t-15.5 -37t-38.5 -14t-37 14.5t-14 36.5zM156 51v1446q0 23 15 38t38 15t38 -15t15 -38v-1446q0 -23 -15.5 -37t-37.5 -14q-23 0 -38 14.5t-15 36.5zM258 1710q0 23 14 37t37 14t38 -14t15 -37t-15 -37t-38 -14t-37 14.5 t-14 36.5z" />
<glyph unicode="&#xd1;" horiz-adv-x="1406" d="M156 55v1440q0 23 16 39t43 16h125q16 0 29.5 -6t19.5 -22l711 -1411h49v1384q0 23 13 39t36 16t38 -16t15 -39v-1440q0 -23 -15 -39t-38 -16h-131q-33 0 -47 31l-713 1417h-45v-1393q0 -23 -13 -39t-34 -16q-27 0 -43 16.5t-16 38.5zM471 1665q-29 66 2 127t94 84 q35 10 69 10t64 -16q25 -16 47.5 -41t32.5 -53q10 -27 35 -38.5t53 -0.5q27 6 43 30q4 8 5.5 23.5t-3.5 30.5q-10 20 -1.5 38.5t26.5 26.5q16 4 35.5 -3t30.5 -30q6 -29 7 -62.5t-16 -61.5q-29 -63 -94 -82q-33 -10 -65.5 -7.5t-61.5 15t-50.5 36t-33.5 56.5q-10 23 -35 37 q-4 4 -18 5t-31 -5q-25 -8 -40 -33t-5 -53q6 -18 -1 -38t-23 -26q-16 -8 -36 1.5t-30 29.5z" />
<glyph unicode="&#xd2;" horiz-adv-x="1351" d="M123 553v444q0 115 43 215.5t117.5 176t176 118.5t216.5 43q113 0 213 -41t180 -118q78 -80 119 -181.5t41 -212.5v-444q0 -115 -43 -215t-119 -175t-176 -119t-215 -44t-216.5 44t-176 119t-117.5 175t-43 215zM229 553q0 -92 35 -173t96.5 -142.5t142.5 -96.5t173 -35 t174 35t143.5 96.5t96 142.5t34.5 173v444q0 90 -33.5 172t-99.5 144q-61 66 -142 99.5t-173 33.5t-173 -35t-142.5 -96.5t-96.5 -143t-35 -174.5v-444zM579 1776.5q1 21.5 17 38.5q14 14 35.5 15t36.5 -15l77 -78q16 -16 15 -37t-15 -35q-16 -16 -37.5 -17t-37.5 13l-76 78 q-16 16 -15 37.5z" />
<glyph unicode="&#xd3;" horiz-adv-x="1351" d="M123 553v444q0 115 43 215.5t117.5 176t176 118.5t216.5 43q113 0 213 -41t180 -118q78 -80 119 -181.5t41 -212.5v-444q0 -115 -43 -215t-119 -175t-176 -119t-215 -44t-216.5 44t-176 119t-117.5 175t-43 215zM229 553q0 -92 35 -173t96.5 -142.5t142.5 -96.5t173 -35 t174 35t143.5 96.5t96 142.5t34.5 173v444q0 90 -33.5 172t-99.5 144q-61 66 -142 99.5t-173 33.5t-173 -35t-142.5 -96.5t-96.5 -143t-35 -174.5v-444zM593 1702.5q-1 21.5 13 38.5l78 76q16 16 37.5 15t38.5 -17q14 -14 15 -36t-15 -36l-78 -78q-16 -16 -37 -15t-35 15 q-16 16 -17 37.5z" />
<glyph unicode="&#xd4;" horiz-adv-x="1351" d="M123 553v444q0 115 43 215.5t117.5 176t176 118.5t216.5 43q113 0 213 -41t180 -118q78 -80 119 -181.5t41 -212.5v-444q0 -115 -43 -215t-119 -175t-176 -119t-215 -44t-216.5 44t-176 119t-117.5 175t-43 215zM229 553q0 -92 35 -173t96.5 -142.5t142.5 -96.5t173 -35 t174 35t143.5 96.5t96 142.5t34.5 173v444q0 90 -33.5 172t-99.5 144q-61 66 -142 99.5t-173 33.5t-173 -35t-142.5 -96.5t-96.5 -143t-35 -174.5v-444zM415 1776.5q1 21.5 17 38.5q14 14 35.5 15t36.5 -15l78 -78q16 -16 15 -37t-15 -35q-16 -16 -38 -17t-38 13l-76 78 q-16 16 -15 37.5zM763 1702.5q-1 21.5 13 38.5l78 76q16 16 37.5 15t38.5 -17q14 -14 15 -36t-15 -36l-78 -78q-16 -16 -37 -15t-35 15q-16 16 -17 37.5z" />
<glyph unicode="&#xd5;" horiz-adv-x="1351" d="M123 553v444q0 115 43 215.5t117.5 176t176 118.5t216.5 43q113 0 213 -41t180 -118q78 -80 119 -181.5t41 -212.5v-444q0 -115 -43 -215t-119 -175t-176 -119t-215 -44t-216.5 44t-176 119t-117.5 175t-43 215zM229 553q0 -92 35 -173t96.5 -142.5t142.5 -96.5t173 -35 t174 35t143.5 96.5t96 142.5t34.5 173v444q0 90 -33.5 172t-99.5 144q-61 66 -142 99.5t-173 33.5t-173 -35t-142.5 -96.5t-96.5 -143t-35 -174.5v-444zM422 1665q-29 66 2 127t94 84q35 10 69 10t64 -16q25 -16 47.5 -41t32.5 -53q10 -27 35 -38.5t53 -0.5q27 6 43 30 q4 8 5 23.5t-3 30.5q-10 20 -2 38.5t27 26.5q16 4 35.5 -3t29.5 -30q6 -29 7.5 -62.5t-15.5 -61.5q-29 -63 -94 -82q-33 -10 -65.5 -7.5t-61.5 15t-50.5 36t-33.5 56.5q-10 23 -35 37q-4 4 -18.5 5t-30.5 -5q-25 -8 -40 -33t-5 -53q6 -18 -1.5 -38t-23.5 -26 q-16 -8 -35.5 1.5t-29.5 29.5z" />
<glyph unicode="&#xd6;" horiz-adv-x="1361" d="M127 553v444q0 115 44 215.5t119 176t175 118.5t215 43t216 -43t176 -118.5t119 -176t44 -215.5v-444q0 -115 -44 -215t-119 -175t-176 -119t-216 -44q-111 0 -211 41t-178 119q-80 80 -122 181t-42 212zM233 553q0 -92 33 -172t99 -143q63 -66 144 -99t171 -33 q92 0 174 35t143.5 96.5t97 142.5t35.5 173v444q0 90 -34.5 172t-96.5 144q-133 133 -319 133q-92 0 -173 -35t-142.5 -96.5t-96.5 -143t-35 -174.5v-444zM233 1602q0 23 14.5 38t37.5 15t38 -15.5t15 -37.5q0 -23 -15.5 -37.5t-37.5 -14.5q-23 0 -37.5 14.5t-14.5 37.5z M1026 1602q0 23 14.5 38t36.5 15q23 0 38 -15.5t15 -37.5q0 -23 -15 -37.5t-38 -14.5t-37 14.5t-14 37.5z" />
<glyph unicode="&#xd7;" horiz-adv-x="829" d="M112 419.5q-3 18.5 9 35.5l235 344l-235 338q-10 18 -8 35.5t18 25.5q14 10 32.5 8t29.5 -18l217 -316l217 316q10 16 27.5 18t33.5 -8q16 -8 18.5 -25.5t-10.5 -35.5l-237 -338l239 -344q12 -16 9.5 -35t-15.5 -27q-16 -10 -34.5 -8t-28.5 18l-219 318l-220 -318 q-8 -16 -26.5 -18t-32.5 8q-16 8 -19 26.5z" />
<glyph unicode="&#xd8;" horiz-adv-x="1351" d="M127 551v455q0 111 43 210t117.5 173.5t176 117.5t216.5 43q111 0 205 -38.5t172 -104.5l78 119q16 16 35 20t42 -8q16 -12 20.5 -35.5t-5.5 -36.5l-101 -141q51 -70 79 -150.5t28 -168.5v-455q0 -115 -43 -214t-119 -175t-176 -119t-215 -43q-111 0 -205 40t-170 105 l-82 -125q-10 -16 -31.5 -21t-41.5 11q-16 10 -19.5 34t12.5 40l95 141q-111 141 -111 326zM229 551q0 -66 18.5 -125t53.5 -109l694 1002q-63 63 -144 96t-171 33q-92 0 -174 -36t-143.5 -96.5t-97.5 -141t-36 -168.5v-455zM367 233q61 -61 141 -91.5t172 -30.5t173 34.5 t142.5 94t96 139.5t34.5 172v455q0 59 -16 117.5t-49 109.5z" />
<glyph unicode="&#xd9;" horiz-adv-x="1384" d="M139 553v944q0 23 15.5 38t38.5 15t38 -15t15 -38v-944q0 -92 34.5 -173t96 -142.5t142.5 -96.5t173 -35t174 35t143.5 96.5t97.5 142.5t36 173v944q0 23 14 38t37 15t37 -15t14 -38v-944q0 -115 -43 -215t-117.5 -175t-176 -119t-216.5 -44t-215 44t-175 119t-119 175 t-44 215zM579 1776.5q1 21.5 17 38.5q14 14 35.5 15t36.5 -15l77 -78q16 -16 15 -37t-15 -35q-16 -16 -37.5 -17t-37.5 13l-76 78q-16 16 -15 37.5z" />
<glyph unicode="&#xda;" horiz-adv-x="1384" d="M139 553v944q0 23 15.5 38t38.5 15t38 -15t15 -38v-944q0 -92 34.5 -173t96 -142.5t142.5 -96.5t173 -35t174 35t143.5 96.5t97.5 142.5t36 173v944q0 23 14 38t37 15t37 -15t14 -38v-944q0 -115 -43 -215t-117.5 -175t-176 -119t-216.5 -44t-215 44t-175 119t-119 175 t-44 215zM634 1702.5q-1 21.5 13 38.5l78 76q16 16 37.5 15t38.5 -17q14 -14 15 -36t-15 -36l-78 -78q-16 -16 -37 -15t-35 15q-16 16 -17 37.5z" />
<glyph unicode="&#xdb;" horiz-adv-x="1384" d="M139 553v944q0 23 15.5 38t38.5 15t38 -15t15 -38v-944q0 -92 34.5 -173t96 -142.5t142.5 -96.5t173 -35t174 35t143.5 96.5t97.5 142.5t36 173v944q0 23 14 38t37 15t37 -15t14 -38v-944q0 -115 -43 -215t-117.5 -175t-176 -119t-216.5 -44t-215 44t-175 119t-119 175 t-44 215zM435.5 1776.5q0.5 21.5 17.5 38.5q14 14 35.5 15t35.5 -15l78 -78q16 -16 15 -37t-15 -35q-16 -16 -37.5 -17t-38.5 13l-75 78q-16 16 -15.5 37.5zM783.5 1702.5q-1.5 21.5 13.5 38.5l77 76q16 16 38 15t38 -17q14 -14 15.5 -36t-15.5 -36l-78 -78 q-16 -16 -36.5 -15t-34.5 15q-16 16 -17.5 37.5z" />
<glyph unicode="&#xdc;" horiz-adv-x="1384" d="M139 553v944q0 23 15.5 38t38.5 15t38 -15t15 -38v-944q0 -92 34.5 -173t96 -142.5t142.5 -96.5t173 -35t174 35t143.5 96.5t97.5 142.5t36 173v944q0 23 14 38t37 15t37 -15t14 -38v-944q0 -115 -43 -215t-117.5 -175t-176 -119t-216.5 -44t-215 44t-175 119t-119 175 t-44 215zM485 1708q0 23 14.5 38t37.5 15t38 -15t15 -38t-15.5 -37t-37.5 -14q-23 0 -37.5 14t-14.5 37zM813 1708q0 23 14.5 38t36.5 15q23 0 38.5 -15t15.5 -38t-15.5 -37t-38.5 -14t-37 14t-14 37z" />
<glyph unicode="&#xdd;" horiz-adv-x="1214" d="M59.5 1507q3.5 23 20.5 35q20 10 40.5 6t35.5 -20l452 -656l457 656q10 16 32 20t40 -6q18 -12 21 -34.5t-7 -39.5l-487 -706v-711q0 -23 -15.5 -37t-38.5 -14t-38 14.5t-15 36.5v711q-4 4 -6 7t-6 7l-475 692q-14 16 -10.5 39zM554 1702.5q-1 21.5 13 38.5l78 76 q16 16 38 15t38 -17q14 -14 15 -36t-15 -36l-78 -78q-16 -16 -37 -15t-35 15q-16 16 -17 37.5z" />
<glyph unicode="&#xdf;" horiz-adv-x="1157" d="M150 55v1112v21q0 76 28.5 141.5t77.5 114.5t114.5 77.5t139.5 28.5q76 0 142.5 -28.5t116.5 -77.5t79 -114.5t29 -141.5v-21q0 -82 -34 -153.5t-93 -122.5q59 -14 109 -48t87 -80t57.5 -103.5t20.5 -120.5v-168q0 -78 -29.5 -145.5t-79 -118t-116 -79t-140.5 -28.5h-155 q-18 0 -34.5 16.5t-16.5 38.5q0 23 16 39.5t35 16.5h155q51 0 99.5 20.5t84.5 55t57.5 81.5t21.5 103v168q0 55 -21.5 102t-57.5 82t-84 55.5t-100 20.5h-149q-23 0 -38 16t-15 37q0 23 15 38t38 15q55 0 103.5 20.5t83 56.5t55 83t20.5 102v21q0 53 -20.5 100t-55 83 t-83 56.5t-103.5 20.5q-53 0 -100.5 -20.5t-81 -56.5t-53 -83t-19.5 -100v-21v-1112q0 -23 -16.5 -39t-38.5 -16q-20 0 -35.5 16.5t-15.5 38.5z" />
<glyph unicode="&#xe0;" d="M86 322q0 66 24.5 124t69.5 105q45 45 104.5 69.5t125.5 24.5h172h51q41 0 69 27q25 27 25 67v6v29q0 55 -37 92q-16 16 -38.5 26.5t-49.5 10.5h-94h-43h-250q-25 0 -40 14.5t-15 36.5q0 23 15 37.5t40 14.5h250h43h94q45 0 88 -16.5t76 -49.5q68 -68 68 -166v-160v-563 q0 -23 -14.5 -37t-37.5 -14t-39 14.5t-16 36.5v33q-90 -84 -217 -84h-100q-68 0 -126.5 25.5t-102.5 68.5t-69.5 101.5t-25.5 126.5zM193 322q0 -45 17 -85t46 -70t69 -47.5t85 -17.5h100q43 0 83 17.5t69 46.5q66 66 65 156v243q-23 -16 -46.5 -21t-47.5 -5h-51h-172 q-92 0 -154.5 -62.5t-62.5 -154.5zM386 1268q1 21 15 35q16 16 38 17t38 -13l76 -78q16 -16 15 -38t-17 -38q-14 -14 -35.5 -15t-36.5 15l-78 78q-16 16 -15 37z" />
<glyph unicode="&#xe1;" d="M86 322q0 66 24.5 124t69.5 105q45 45 104.5 69.5t125.5 24.5h172h51q41 0 69 27q25 27 25 67v6v29q0 55 -37 92q-16 16 -38.5 26.5t-49.5 10.5h-94h-43h-250q-25 0 -40 14.5t-15 36.5q0 23 15 37.5t40 14.5h250h43h94q45 0 88 -16.5t76 -49.5q68 -68 68 -166v-160v-563 q0 -23 -14.5 -37t-37.5 -14t-39 14.5t-16 36.5v33q-90 -84 -217 -84h-100q-68 0 -126.5 25.5t-102.5 68.5t-69.5 101.5t-25.5 126.5zM193 322q0 -45 17 -85t46 -70t69 -47.5t85 -17.5h100q43 0 83 17.5t69 46.5q66 66 65 156v243q-23 -16 -46.5 -21t-47.5 -5h-51h-172 q-92 0 -154.5 -62.5t-62.5 -154.5zM454 1192.5q-1 21.5 13 38.5l78 76q16 16 37.5 15t38.5 -17q14 -14 15 -36t-15 -36l-78 -78q-16 -16 -37 -15t-35 15q-16 16 -17 37.5z" />
<glyph unicode="&#xe2;" d="M57 322q0 68 26 126t69 102t101 69.5t126 25.5h172h53q41 0 68.5 26.5t27.5 67.5v6v29q0 53 -36.5 91t-90.5 38h-94h-43h-252q-23 0 -38 14.5t-15 36.5q0 23 15.5 37.5t37.5 14.5h252h43h94q47 0 89.5 -18.5t74 -49.5t50 -73t18.5 -91v-723q0 -23 -14.5 -37t-36.5 -14 q-23 0 -38.5 14.5t-15.5 36.5v33q-94 -84 -219 -84h-102q-68 0 -126 25.5t-101 68.5t-69 101.5t-26 126.5zM164 322q0 -45 16.5 -85t46 -70t68.5 -47.5t84 -17.5h102q43 0 83 17.5t69 46.5q63 68 63 156v243q-18 -14 -42.5 -20t-49.5 -6h-53h-172q-45 0 -84 -17.5 t-68.5 -46.5t-46 -68.5t-16.5 -84.5zM196 1137.5q-3 21.5 13 38.5l197 239q23 18 40 19q23 0 41 -19l197 -239q12 -16 10 -38t-18 -34q-16 -16 -38 -12t-34 20l-158 184l-157 -184q-16 -16 -37 -20.5t-37 12.5q-16 12 -19 33.5z" />
<glyph unicode="&#xe3;" horiz-adv-x="892" d="M57 322q0 68 26 126t69 102t101 69.5t126 25.5h172h53q41 0 68.5 26.5t27.5 67.5v6v29q0 53 -36.5 91t-90.5 38h-94h-43h-252q-23 0 -38 14.5t-15 36.5q0 23 15.5 37.5t37.5 14.5h252h43h94q47 0 89.5 -18.5t74 -49.5t50 -73t18.5 -91v-723q0 -23 -14.5 -37t-36.5 -14 q-23 0 -38.5 14.5t-15.5 36.5v33q-94 -84 -219 -84h-102q-68 0 -126 25.5t-101 68.5t-69 101.5t-26 126.5zM164 322q0 -45 16.5 -85t46 -70t68.5 -47.5t84 -17.5h102q43 0 83 17.5t69 46.5q63 68 63 156v243q-18 -14 -42.5 -20t-49.5 -6h-53h-172q-45 0 -84 -17.5 t-68.5 -46.5t-46 -68.5t-16.5 -84.5zM188 1133q-29 66 2 127t95 83q35 10 68.5 10.5t64.5 -16.5q25 -16 47 -40.5t33 -53.5q10 -27 34.5 -38t53.5 -1q27 6 43 31q4 8 5 23.5t-3 29.5q-10 20 -2 39t26 27q16 4 36 -3.5t30 -29.5q6 -29 7 -62.5t-15 -62.5q-29 -63 -95 -82 q-33 -10 -65.5 -7t-61 15.5t-50 36t-33.5 55.5q-10 23 -35 37q-4 4 -18.5 5t-30.5 -5q-25 -8 -40.5 -32.5t-4.5 -53.5q6 -18 -1.5 -37.5t-23.5 -25.5q-16 -8 -35.5 1t-30.5 30z" />
<glyph unicode="&#xe4;" horiz-adv-x="919" d="M57 322q0 68 26 126t69 102t101 69.5t126 25.5h172h53q41 0 68.5 26.5t27.5 67.5v6v29q0 53 -36.5 91t-90.5 38h-94h-43h-252q-23 0 -38 14.5t-15 36.5q0 23 15.5 37.5t37.5 14.5h252h43h94q47 0 89.5 -18.5t74 -49.5t50 -73t18.5 -91v-723q0 -23 -14.5 -37t-36.5 -14 q-23 0 -38.5 14.5t-15.5 36.5v33q-94 -84 -219 -84h-102q-68 0 -126 25.5t-101 68.5t-69 101.5t-26 126.5zM164 322q0 -45 16.5 -85t46 -70t68.5 -47.5t84 -17.5h102q43 0 83 17.5t69 46.5q63 68 63 156v243q-18 -14 -42.5 -20t-49.5 -6h-53h-172q-45 0 -84 -17.5 t-68.5 -46.5t-46 -68.5t-16.5 -84.5zM164 1182q0 23 14.5 38t36.5 15q23 0 38 -15.5t15 -37.5q0 -23 -15 -37.5t-38 -14.5t-37 14.5t-14 37.5zM596 1182q0 23 14.5 38t36.5 15q23 0 38 -15.5t15 -37.5q0 -23 -15 -37.5t-38 -14.5t-37 14.5t-14 37.5z" />
<glyph unicode="&#xe5;" horiz-adv-x="931" d="M70 322q0 68 25.5 126t68.5 102t101.5 69.5t125.5 25.5h172h51q41 0 69 26.5t28 67.5v6v29q0 53 -37 91t-88 38h-94h-43h-254q-23 0 -37.5 14.5t-14.5 36.5q0 23 14.5 37.5t37.5 14.5h254h43h94q47 0 89 -18.5t73.5 -49.5t50 -73t18.5 -91v-723q0 -23 -15.5 -37 t-35.5 -14q-23 0 -39 14.5t-16 36.5v33q-90 -84 -217 -84h-103q-68 0 -126 25.5t-101 68.5t-68.5 101.5t-25.5 126.5zM176 322q0 -45 16.5 -85t46 -70t68.5 -47.5t84 -17.5h103q45 0 83.5 17.5t71.5 46.5q55 55 62 137v262q-41 -27 -97 -26h-51h-172q-92 0 -153.5 -62.5 t-61.5 -154.5zM328 1282q0 61 44 105.5t107 44.5t106.5 -44.5t43.5 -105.5q0 -31 -12.5 -58.5t-30.5 -49.5q-48 -44 -107 -44q-63 0 -107 43.5t-44 108.5zM406 1282q0 -31 21.5 -53.5t51.5 -22.5q12 0 25.5 6.5t23.5 14.5q23 25 23 55q0 29 -20.5 50.5t-51.5 21.5t-52 -21.5 t-21 -50.5z" />
<glyph unicode="&#xe6;" horiz-adv-x="1579" d="M70 322q0 68 24.5 127t67.5 103t101.5 69.5t123.5 25.5h326v127q0 55 -40 93t-89 38h-99h-43h-252q-20 0 -34.5 15.5t-14.5 31.5q0 25 14.5 43.5t34.5 18.5h252h43h99q72 0 132 -43t89 -107q49 63 127 106.5t176 43.5q154 0 272 -119q55 -57 86 -130t31 -151v-16 q0 -27 -13.5 -44t-41.5 -15q-96 0 -203 2q-92 0 -202.5 1t-221.5 1v-148q0 -61 20.5 -112.5t57.5 -90t86 -60t106 -21.5h275q23 0 40 -16.5t17 -39.5t-17.5 -39t-39.5 -16h-275q-80 0 -148.5 31.5t-121.5 87.5q-8 12 -20.5 24.5t-16.5 24.5q-14 -16 -28.5 -34.5t-28.5 -33.5 q-49 -47 -106.5 -73.5t-129.5 -26.5h-98q-66 0 -124 25.5t-101 69.5t-67.5 102.5t-24.5 124.5zM174 322q0 -43 16.5 -82t45 -68t67.5 -45t84 -16h98q97 0 160 63q29 31 48.5 70t19.5 78v221h-326q-45 0 -84 -17.5t-67.5 -47t-45 -70.5t-16.5 -86zM815 647l576 -6 q-8 49 -34 97t-54 81q-39 43 -89.5 64.5t-105.5 21.5t-105.5 -20.5t-89.5 -55t-64.5 -82t-33.5 -100.5z" />
<glyph unicode="&#xe7;" horiz-adv-x="817" d="M104 399v222q0 80 32 151.5t85 125.5t126 85t157 31h186q25 0 38 -15.5t13 -35.5q0 -23 -13 -38.5t-38 -15.5h-186q-61 0 -114.5 -23.5t-93.5 -62.5t-63.5 -92t-23.5 -110v-222q0 -61 23.5 -114.5t63.5 -93t93 -63.5t115 -24h186q25 0 38 -15t13 -36q0 -23 -13 -38 t-38 -15h-162q-14 0 -27.5 -13.5t-13.5 -27.5q0 -12 17 -33q4 -6 12 -7t19 -1q53 0 95 -40t42 -97t-42 -96t-95 -39h-91q-20 0 -32.5 12t-12.5 31q0 20 12.5 33.5t32.5 13.5h91q16 0 27 13t11 32q0 14 -11 27.5t-27 13.5q-29 0 -53.5 11t-45.5 30q-37 39 -37 96q0 31 11 51 q-66 16 -122.5 53t-97 88.5t-63.5 115t-23 132.5z" />
<glyph unicode="&#xe8;" d="M119 393v221q0 78 28.5 150t88.5 127q55 57 126.5 86t151.5 29q164 0 279 -115q55 -55 84.5 -127t29.5 -150v-100q0 -23 -15 -38t-38 -15h-631v-68q0 -61 22.5 -113.5t62.5 -92.5t92.5 -62.5t113.5 -22.5h223q23 0 37 -14t14 -37t-14 -37t-37 -14h-223q-82 0 -153.5 30.5 t-126 84t-85 125t-30.5 153.5zM223 565h578v49q0 55 -21.5 108.5t-62.5 94.5q-82 86 -203 86q-59 0 -111.5 -22.5t-93.5 -63.5t-63.5 -94t-22.5 -109v-49zM396.5 1285q0.5 22 17.5 38q14 14 35.5 15t35.5 -15l78 -78q16 -16 15 -36.5t-15 -34.5q-16 -16 -37.5 -17.5 t-38.5 12.5l-75 78q-16 16 -15.5 38z" />
<glyph unicode="&#xe9;" d="M119 393v221q0 78 28.5 150t88.5 127q55 57 126.5 86t151.5 29q164 0 279 -115q55 -55 84.5 -127t29.5 -150v-100q0 -23 -15 -38t-38 -15h-631v-68q0 -61 22.5 -113.5t62.5 -92.5t92.5 -62.5t113.5 -22.5h223q23 0 37 -14t14 -37t-14 -37t-37 -14h-223q-82 0 -153.5 30.5 t-126 84t-85 125t-30.5 153.5zM223 565h578v49q0 55 -21.5 108.5t-62.5 94.5q-82 86 -203 86q-59 0 -111.5 -22.5t-93.5 -63.5t-63.5 -94t-22.5 -109v-49zM474.5 1213.5q-1.5 21.5 12.5 37.5l78 76q16 16 38 15t38 -17q14 -14 15 -35.5t-15 -36.5l-78 -77q-16 -16 -36.5 -15 t-34.5 15q-16 16 -17.5 37.5z" />
<glyph unicode="&#xea;" d="M119 393v221q0 78 28.5 150t88.5 127q55 57 126.5 86t151.5 29q164 0 279 -115q55 -55 84.5 -127t29.5 -150v-100q0 -23 -15 -38t-38 -15h-631v-68q0 -61 22.5 -113.5t62.5 -92.5t92.5 -62.5t113.5 -22.5h223q23 0 37 -14t14 -37t-14 -37t-37 -14h-223q-82 0 -153.5 30.5 t-126 84t-85 125t-30.5 153.5zM223 565h578v49q0 55 -21.5 108.5t-62.5 94.5q-82 86 -203 86q-59 0 -111.5 -22.5t-93.5 -63.5t-63.5 -94t-22.5 -109v-49zM271.5 1137.5q-3.5 21.5 13.5 38.5l196 239q23 18 41 19q23 0 41 -19l197 -239q12 -16 10 -38t-18 -34 q-16 -16 -38 -12t-34 20l-158 184l-157 -184q-16 -16 -37 -20.5t-37 12.5q-16 12 -19.5 33.5z" />
<glyph unicode="&#xeb;" d="M119 393v221q0 78 28.5 150t88.5 127q55 57 126.5 86t151.5 29q164 0 279 -115q55 -55 84.5 -127t29.5 -150v-100q0 -23 -15 -38t-38 -15h-631v-68q0 -61 22.5 -113.5t62.5 -92.5t92.5 -62.5t113.5 -22.5h223q23 0 37 -14t14 -37t-14 -37t-37 -14h-223q-82 0 -153.5 30.5 t-126 84t-85 125t-30.5 153.5zM223 565h578v49q0 55 -21.5 108.5t-62.5 94.5q-82 86 -203 86q-59 0 -111.5 -22.5t-93.5 -63.5t-63.5 -94t-22.5 -109v-49zM223 1182q0 23 14.5 38t36.5 15q23 0 38.5 -15.5t15.5 -37.5q0 -23 -15.5 -37.5t-38.5 -14.5t-37 14.5t-14 37.5z M696 1182q0 23 14.5 38t37.5 15t38 -15.5t15 -37.5q0 -23 -15.5 -37.5t-37.5 -14.5q-23 0 -37.5 14.5t-14.5 37.5z" />
<glyph unicode="&#xec;" horiz-adv-x="366" d="M30 1285q1 22 17 38q14 14 35.5 15t36.5 -15l78 -78q16 -16 15 -36.5t-15 -34.5q-16 -16 -38 -17.5t-38 12.5l-76 78q-16 16 -15 38zM123 55v899q0 23 14.5 37.5t36.5 14.5q23 0 38 -14.5t15 -37.5v-899q0 -25 -15 -39t-38 -14q-51 0 -51 53z" />
<glyph unicode="&#xed;" horiz-adv-x="366" d="M123 55v899q0 23 14.5 37.5t36.5 14.5q23 0 38 -14.5t15 -37.5v-899q0 -25 -15 -39t-38 -14q-51 0 -51 53zM138.5 1192.5q-1.5 21.5 13.5 38.5l77 76q16 16 38 15t38 -17q14 -14 15.5 -36t-15.5 -36l-78 -78q-16 -16 -36.5 -15t-34.5 15q-16 16 -17.5 37.5z" />
<glyph unicode="&#xee;" horiz-adv-x="366" d="M-78.5 1137.5q-3.5 21.5 12.5 38.5l197 239q23 18 41 19q23 0 41 -19l197 -239q12 -16 9.5 -38t-18.5 -34q-16 -16 -37.5 -12t-33.5 20l-158 184l-158 -184q-16 -16 -36.5 -20.5t-36.5 12.5q-16 12 -19.5 33.5zM123 55v899q0 23 14.5 37.5t36.5 14.5q23 0 38 -14.5 t15 -37.5v-899q0 -25 -15 -39t-38 -14q-51 0 -51 53z" />
<glyph unicode="&#xef;" horiz-adv-x="366" d="M18 1182q0 23 14.5 38t37.5 15t38 -15.5t15 -37.5q0 -23 -15.5 -37.5t-37.5 -14.5q-23 0 -37.5 14.5t-14.5 37.5zM123 55v899q0 23 14.5 37.5t36.5 14.5q23 0 38 -14.5t15 -37.5v-899q0 -25 -15 -39t-38 -14q-51 0 -51 53zM227 1182q0 23 14.5 38t37.5 15t38 -15.5 t15 -37.5q0 -23 -15.5 -37.5t-37.5 -14.5q-23 0 -37.5 14.5t-14.5 37.5z" />
<glyph unicode="&#xf1;" horiz-adv-x="1087" d="M154 506v2v176v4q0 2 1 3t1 3v258q0 25 14 43.5t37 18.5q20 0 36.5 -18.5t16.5 -43.5v-24q41 37 96.5 61.5t122.5 24.5h135q66 0 125.5 -26.5t103.5 -71t70.5 -104.5t26.5 -128v-629q0 -23 -15.5 -39t-39.5 -16q-18 0 -34.5 16.5t-16.5 38.5v629q0 45 -17.5 85 t-46.5 70.5t-70 48t-86 17.5h-135q-45 0 -85 -16.5t-69.5 -46t-47 -67.5t-17.5 -81v-639q0 -23 -16.5 -39t-36.5 -16q-23 0 -37 16.5t-14 38.5v449q-2 0 -2 2zM283 1137q-29 66 1.5 127t94.5 84q35 10 68.5 10t64.5 -17q25 -16 47.5 -40.5t32.5 -53.5q10 -27 34.5 -38 t53.5 -1q27 6 43 31q4 8 5 23.5t-3 29.5q-10 20 -2 39t27 27q16 4 35.5 -3t29.5 -30q6 -29 7 -62.5t-15 -62.5q-29 -63 -94 -82q-33 -10 -66 -7t-61.5 15.5t-50 36t-33.5 56.5q-10 23 -35 36q-4 4 -18.5 5.5t-30.5 -5.5q-25 -8 -40.5 -32.5t-4.5 -53.5q6 -18 -1.5 -37.5 t-23.5 -25.5q-16 -8 -35.5 1t-29.5 30z" />
<glyph unicode="&#xf2;" horiz-adv-x="1024" d="M90 393v221q0 78 30 150t85 127q57 57 129 86t149 29q80 0 152 -29t127 -86q55 -55 86 -127t31 -150v-221q0 -82 -31 -153.5t-85 -125t-126 -84t-154 -30.5t-153.5 30.5t-124.5 84t-84 125t-31 153.5zM197 393q0 -61 22.5 -113.5t61 -92.5t91 -62.5t111.5 -22.5 t111.5 22.5t92.5 62.5t63.5 92.5t23.5 113.5v221q0 55 -22.5 108.5t-63.5 94.5q-86 86 -205 86q-121 0 -202 -86q-41 -41 -62.5 -94t-21.5 -109v-221zM396.5 1285q0.5 22 17.5 38q14 14 35.5 15t35.5 -15l78 -78q16 -16 15 -36.5t-15 -34.5q-16 -16 -37.5 -17.5t-38.5 12.5 l-75 78q-16 16 -15.5 38z" />
<glyph unicode="&#xf3;" horiz-adv-x="1024" d="M90 393v221q0 78 30 150t85 127q57 57 129 86t149 29q80 0 152 -29t127 -86q55 -55 86 -127t31 -150v-221q0 -82 -31 -153.5t-85 -125t-126 -84t-154 -30.5t-153.5 30.5t-124.5 84t-84 125t-31 153.5zM197 393q0 -61 22.5 -113.5t61 -92.5t91 -62.5t111.5 -22.5 t111.5 22.5t92.5 62.5t63.5 92.5t23.5 113.5v221q0 55 -22.5 108.5t-63.5 94.5q-86 86 -205 86q-121 0 -202 -86q-41 -41 -62.5 -94t-21.5 -109v-221zM454 1192.5q-1 21.5 13 38.5l78 76q16 16 37.5 15t38.5 -17q14 -14 15 -36t-15 -36l-78 -78q-16 -16 -37 -15t-35 15 q-16 16 -17 37.5z" />
<glyph unicode="&#xf4;" horiz-adv-x="1024" d="M90 393v221q0 78 30 150t85 127q57 57 129 86t149 29q80 0 152 -29t127 -86q55 -55 86 -127t31 -150v-221q0 -82 -31 -153.5t-85 -125t-126 -84t-154 -30.5t-153.5 30.5t-124.5 84t-84 125t-31 153.5zM197 393q0 -61 22.5 -113.5t61 -92.5t91 -62.5t111.5 -22.5 t111.5 22.5t92.5 62.5t63.5 92.5t23.5 113.5v221q0 55 -22.5 108.5t-63.5 94.5q-86 86 -205 86q-121 0 -202 -86q-41 -41 -62.5 -94t-21.5 -109v-221zM232.5 1137.5q-3.5 21.5 13.5 38.5l196 239q23 18 41 19q23 0 41 -19l197 -239q12 -16 10 -38t-18 -34q-16 -16 -38 -12 t-34 20l-158 184l-157 -184q-16 -16 -37 -20.5t-37 12.5q-16 12 -19.5 33.5z" />
<glyph unicode="&#xf5;" horiz-adv-x="1005" d="M109 393v221q0 78 29.5 150t84.5 127q57 57 129 86t150 29q80 0 151.5 -29t126.5 -86q55 -55 86 -127t31 -150v-221q0 -82 -30.5 -153.5t-85 -125t-126 -84t-153.5 -30.5t-154 30.5t-125 84t-83.5 125t-30.5 153.5zM215 393q0 -61 22.5 -113.5t61.5 -92.5t91.5 -62.5 t111.5 -22.5t111.5 22.5t92 62.5t63.5 92.5t24 113.5v221q0 55 -22.5 108.5t-63.5 94.5q-86 86 -205 86q-121 0 -203 -86q-41 -41 -62.5 -94t-21.5 -109v-221zM244 1133q-29 66 1.5 127t94.5 83q35 10 68.5 10.5t64.5 -16.5q25 -16 47.5 -40.5t32.5 -53.5q10 -27 34.5 -38 t53.5 -1q27 6 43 31q4 8 5 23.5t-3 29.5q-10 20 -2 39t27 27q16 4 35.5 -3.5t29.5 -29.5q6 -29 7 -62.5t-15 -62.5q-29 -63 -94 -82q-33 -10 -66 -7t-61.5 15.5t-50 36t-33.5 55.5q-10 23 -35 37q-4 4 -18.5 5t-30.5 -5q-25 -8 -40 -32.5t-5 -53.5q6 -18 -1.5 -37.5 t-23.5 -25.5q-16 -8 -35.5 1t-29.5 30z" />
<glyph unicode="&#xf6;" horiz-adv-x="968" d="M90 393v221q0 78 30 150t85 127q57 57 129 86t149 29q80 0 152 -29t127 -86q55 -55 86 -127t31 -150v-221q0 -82 -31 -153.5t-85 -125t-126 -84t-154 -30.5t-153.5 30.5t-124.5 84t-84 125t-31 153.5zM197 393q0 -61 22.5 -113.5t61 -92.5t91 -62.5t111.5 -22.5 t111.5 22.5t92.5 62.5t63.5 92.5t23.5 113.5v221q0 55 -22.5 108.5t-63.5 94.5q-86 86 -205 86q-121 0 -202 -86q-41 -41 -62.5 -94t-21.5 -109v-221zM197 1182q0 23 14 38t37 15t38 -15.5t15 -37.5q0 -23 -15.5 -37.5t-37.5 -14.5q-23 0 -37 14.5t-14 37.5zM670 1182 q0 23 14 38t37 15t38 -15.5t15 -37.5q0 -23 -15.5 -37.5t-37.5 -14.5q-23 0 -37 14.5t-14 37.5z" />
<glyph unicode="&#xf7;" horiz-adv-x="915" d="M32 33.5q-7 21.5 3 40.5l743 1446q8 23 30 27.5t38 -5.5q23 -10 29 -30.5t-3 -41.5l-743 -1443q-10 -18 -30.5 -25.5t-41.5 0.5q-18 10 -25 31.5z" />
<glyph unicode="&#xf8;" horiz-adv-x="1024" d="M123 393v221q0 84 30.5 157t85 127t127 85t156.5 31q68 0 130.5 -22.5t115.5 -69.5l51 71q33 33 78 11q18 -16 19.5 -37t-9.5 -39l-63 -80q74 -102 74 -234v-221q0 -80 -31 -150.5t-88 -127.5q-115 -115 -277 -115q-72 0 -135 24.5t-117 65.5l-51 -72q-16 -14 -35.5 -17 t-40.5 7q-16 16 -18 37t8 39l62 80q-35 49 -53.5 109.5t-18.5 119.5zM229 393q0 -35 9.5 -70.5t25.5 -64.5l441 584q-39 31 -86.5 48t-96.5 17q-61 0 -114.5 -22.5t-93.5 -62.5t-62.5 -93t-22.5 -115v-221zM334 170q41 -31 88 -48.5t100 -17.5q57 0 109.5 23t92.5 62.5 t62.5 92t22.5 111.5v221q0 37 -8 74t-27 66z" />
<glyph unicode="&#xf9;" horiz-adv-x="1058" d="M143 324v630q0 23 15.5 37.5t36.5 14.5q23 0 38 -14.5t15 -37.5v-630q0 -45 17.5 -85t48 -71t70.5 -48.5t85 -17.5h104q45 0 84 16.5t69 46.5t48.5 68.5t18.5 81.5v639q0 23 16 37.5t39 14.5q20 0 35.5 -14.5t15.5 -37.5v-903q0 -23 -15.5 -37t-35.5 -14q-23 0 -39 14.5 t-16 36.5v33q-43 -41 -98.5 -62.5t-121.5 -21.5h-104q-68 0 -126 25.5t-103 68.5t-71 102.5t-26 127.5zM437.5 1285q0.5 22 17.5 38q14 14 35.5 15t35.5 -15l78 -78q16 -16 15 -36.5t-15 -34.5q-16 -16 -37.5 -17.5t-38.5 12.5l-75 78q-16 16 -15.5 38z" />
<glyph unicode="&#xfa;" horiz-adv-x="1058" d="M143 324v630q0 23 15.5 37.5t36.5 14.5q23 0 38 -14.5t15 -37.5v-630q0 -45 17.5 -85t48 -71t70.5 -48.5t85 -17.5h104q45 0 84 16.5t69 46.5t48.5 68.5t18.5 81.5v639q0 23 16 37.5t39 14.5q20 0 35.5 -14.5t15.5 -37.5v-903q0 -23 -15.5 -37t-35.5 -14q-23 0 -39 14.5 t-16 36.5v33q-43 -41 -98.5 -62.5t-121.5 -21.5h-104q-68 0 -126 25.5t-103 68.5t-71 102.5t-26 127.5zM474.5 1192.5q-1.5 21.5 12.5 38.5l78 76q16 16 38 15t38 -17q14 -14 15 -36t-15 -36l-78 -78q-16 -16 -36.5 -15t-34.5 15q-16 16 -17.5 37.5z" />
<glyph unicode="&#xfb;" horiz-adv-x="1058" d="M143 324v630q0 23 15.5 37.5t36.5 14.5q23 0 38 -14.5t15 -37.5v-630q0 -45 17.5 -85t48 -71t70.5 -48.5t85 -17.5h104q45 0 84 16.5t69 46.5t48.5 68.5t18.5 81.5v639q0 23 16 37.5t39 14.5q20 0 35.5 -14.5t15.5 -37.5v-903q0 -23 -15.5 -37t-35.5 -14q-23 0 -39 14.5 t-16 36.5v33q-43 -41 -98.5 -62.5t-121.5 -21.5h-104q-68 0 -126 25.5t-103 68.5t-71 102.5t-26 127.5zM286 1137.5q-3 21.5 13 38.5l197 239q23 18 41 19q23 0 41 -19l196 -239q12 -16 10 -38t-18 -34q-16 -16 -37.5 -12t-34.5 20l-157 184l-158 -184q-16 -16 -36.5 -20.5 t-37.5 12.5q-16 12 -19 33.5z" />
<glyph unicode="&#xfc;" horiz-adv-x="1058" d="M143 324v630q0 23 15.5 37.5t36.5 14.5q23 0 38 -14.5t15 -37.5v-630q0 -45 17.5 -85t48 -71t70.5 -48.5t85 -17.5h104q45 0 84 16.5t69 46.5t48.5 68.5t18.5 81.5v639q0 23 16 37.5t39 14.5q20 0 35.5 -14.5t15.5 -37.5v-903q0 -23 -15.5 -37t-35.5 -14q-23 0 -39 14.5 t-16 36.5v33q-43 -41 -98.5 -62.5t-121.5 -21.5h-104q-68 0 -126 25.5t-103 68.5t-71 102.5t-26 127.5zM248 1182q0 23 14 38t37 15t38 -15.5t15 -37.5q0 -23 -15 -37.5t-38 -14.5t-37 14.5t-14 37.5zM688 1182q0 23 14.5 38t36.5 15q23 0 38.5 -15.5t15.5 -37.5 q0 -23 -15.5 -37.5t-38.5 -14.5t-37 14.5t-14 37.5z" />
<glyph unicode="&#xfd;" horiz-adv-x="1003" d="M101.5 972q7.5 19 25.5 32q20 10 39.5 1.5t30.5 -28.5l344 -692l325 692q10 20 30 28.5t40 -1.5t27.5 -31t-0.5 -41l-594 -1264q-10 -20 -32 -28.5t-40 2.5q-23 10 -29 29.5t2 41.5l213 451l-379 766q-10 23 -2.5 42zM515 1192.5q-1 21.5 13 38.5l78 76q16 16 38 15 t38 -17q14 -14 15 -36t-15 -36l-78 -78q-16 -16 -37 -15t-35 15q-16 16 -17 37.5z" />
<glyph unicode="&#xff;" horiz-adv-x="1003" d="M101.5 972q7.5 19 25.5 32q20 10 39.5 1.5t30.5 -28.5l344 -692l325 692q10 20 30 28.5t40 -1.5t27.5 -31t-0.5 -41l-594 -1264q-10 -20 -32 -28.5t-40 2.5q-23 10 -29 29.5t2 41.5l213 451l-379 766q-10 23 -2.5 42zM332 1182q0 23 14 38t37 15t38 -15.5t15 -37.5 q0 -23 -15 -37.5t-38 -14.5t-37 14.5t-14 37.5zM666 1182q0 23 14 38t37 15t38 -15.5t15 -37.5q0 -23 -15.5 -37.5t-37.5 -14.5q-23 0 -37 14.5t-14 37.5z" />
<glyph unicode="&#x178;" horiz-adv-x="1214" d="M59.5 1507q3.5 23 20.5 35q20 10 40.5 6t35.5 -20l452 -656l457 656q10 16 32 20t40 -6q18 -12 21 -34.5t-7 -39.5l-487 -706v-711q0 -23 -15.5 -37t-38.5 -14t-38 14.5t-15 36.5v711q-4 4 -6 7t-6 7l-475 692q-14 16 -10.5 39zM424 1710q0 23 14 37t37 14t38 -14t15 -37 t-15 -37t-38 -14t-37 14.5t-14 36.5zM752 1710q0 23 14 37t37 14t38 -14t15 -37t-15.5 -37t-37.5 -14q-23 0 -37 14.5t-14 36.5z" />
<glyph unicode="&#x2c6;" horiz-adv-x="548" d="M23.5 1242q-3.5 22 13.5 38l196 240q23 18 41 18q23 0 41 -18l197 -240q12 -16 10 -38t-18 -34q-16 -16 -38 -12t-34 21l-158 184l-157 -184q-16 -16 -37 -20.5t-37 11.5q-16 12 -19.5 34z" />
<glyph unicode="&#x2000;" horiz-adv-x="966" />
<glyph unicode="&#x2001;" horiz-adv-x="1933" />
<glyph unicode="&#x2002;" horiz-adv-x="966" />
<glyph unicode="&#x2003;" horiz-adv-x="1933" />
<glyph unicode="&#x2004;" horiz-adv-x="644" />
<glyph unicode="&#x2005;" horiz-adv-x="483" />
<glyph unicode="&#x2006;" horiz-adv-x="322" />
<glyph unicode="&#x2007;" horiz-adv-x="322" />
<glyph unicode="&#x2008;" horiz-adv-x="241" />
<glyph unicode="&#x2009;" horiz-adv-x="386" />
<glyph unicode="&#x200a;" horiz-adv-x="107" />
<glyph unicode="&#x2010;" horiz-adv-x="866" d="M100 774q0 23 16.5 37t39.5 14h542q18 0 35 -14t17 -37t-16.5 -37t-35.5 -14h-542q-23 0 -39.5 14.5t-16.5 36.5z" />
<glyph unicode="&#x2011;" horiz-adv-x="866" d="M100 774q0 23 16.5 37t39.5 14h542q18 0 35 -14t17 -37t-16.5 -37t-35.5 -14h-542q-23 0 -39.5 14.5t-16.5 36.5z" />
<glyph unicode="&#x2012;" horiz-adv-x="866" d="M100 774q0 23 16.5 37t39.5 14h542q18 0 35 -14t17 -37t-16.5 -37t-35.5 -14h-542q-23 0 -39.5 14.5t-16.5 36.5z" />
<glyph unicode="&#x2013;" horiz-adv-x="827" d="M92 774q0 23 16.5 37t38.5 14h543q18 0 34.5 -14t16.5 -37t-16 -37t-35 -14h-543q-23 0 -39 14.5t-16 36.5z" />
<glyph unicode="&#x2014;" horiz-adv-x="968" d="M147 774q0 23 16.5 37t39.5 14h542q18 0 35 -14t17 -37t-16.5 -37t-35.5 -14h-542q-23 0 -39.5 14.5t-16.5 36.5z" />
<glyph unicode="&#x2022;" horiz-adv-x="698" d="M150 768q0 61 44 105.5t107 44.5q59 0 104.5 -44.5t45.5 -105.5q0 -31 -12.5 -57.5t-30.5 -48.5q-46 -46 -107 -46q-63 0 -108 46q-43 47 -43 106zM225 768q0 -27 25 -51q8 -10 21.5 -15.5t29.5 -5.5q12 0 25.5 5.5t23.5 15.5q23 20 23 51q0 29 -21.5 50.5t-50.5 21.5 q-31 0 -53.5 -21.5t-22.5 -50.5z" />
<glyph unicode="&#x202f;" horiz-adv-x="386" />
<glyph unicode="&#x2039;" horiz-adv-x="620" d="M12 774q0 23 19 41l436 361q16 12 38 9.5t34 -18.5q16 -16 12 -37.5t-21 -33.5l-380 -322l380 -321q16 -16 20.5 -37t-11.5 -37q-12 -16 -34 -19.5t-38 13.5l-436 360q-18 23 -19 41z" />
<glyph unicode="&#x203a;" horiz-adv-x="778" d="M128 415.5q3 20.5 19 37.5l381 321l-381 322q-16 12 -19 33.5t11 37.5q16 16 37 18.5t37 -9.5l436 -361q6 -8 11.5 -19.5t5.5 -21.5t-5.5 -20.5t-11.5 -20.5l-436 -360q-16 -16 -36.5 -13.5t-37.5 19.5q-14 16 -11 36.5z" />
<glyph unicode="&#x205f;" horiz-adv-x="483" />
<glyph unicode="&#x20ac;" horiz-adv-x="1124" d="M121 672q0 18 15.5 30.5t35.5 12.5h80v133h-80q-20 0 -35.5 12t-15.5 33q0 23 15.5 36t35.5 13h80v4q0 90 33.5 168t91 136.5t135.5 91t166 32.5q86 0 163 -32.5t136 -94.5q16 -14 16 -35.5t-16 -37.5q-14 -14 -36.5 -14.5t-37.5 14.5q-47 45 -103.5 70.5t-121.5 25.5 q-66 0 -124 -25.5t-102 -70t-70 -102.5t-26 -126v-4h301q18 0 31.5 -13.5t13.5 -35.5q0 -20 -13 -32.5t-32 -12.5h-301v-133h301q18 0 31.5 -12.5t13.5 -30.5q0 -20 -13 -34.5t-32 -14.5h-301v-7q0 -66 26 -124t70 -101t102 -68.5t124 -25.5q59 0 116.5 23.5t102.5 64.5 q16 14 37.5 14t38.5 -14q14 -14 14 -36.5t-14 -37.5q-59 -59 -134 -90t-161 -31q-88 0 -166 34t-135.5 91.5t-91 135t-33.5 165.5v7h-80q-20 0 -35.5 14t-15.5 35z" />
<glyph unicode="&#x2122;" horiz-adv-x="915" d="M102 1522q0 25 21 24h123h121q10 0 17 -6t7 -18q0 -14 -7 -20.5t-17 -6.5h-97v-330q0 -27 -24 -26q-25 0 -25 26v330h-98q-20 0 -21 27zM434 1165v357q0 12 9.5 18t17.5 6h37q2 0 14 -8l104 -149l97 149q12 8 24 8h35q8 0 17.5 -6t9.5 -18v-357q0 -12 -9.5 -19t-17.5 -7 q-27 0 -27 26v324l-100 -164q-4 0 -11 -3t-18 -3q-2 0 -9 3t-11 3l-109 164v-324q0 -27 -26 -26q-8 0 -17.5 7t-9.5 19z" />
<glyph unicode="&#xe000;" horiz-adv-x="1003" d="M0 0v1004h1004v-1004h-1004z" />
</font>
</defs>
</svg>
